<svg xmlns="http://www.w3.org/2000/svg" xmlns:xlink="http://www.w3.org/1999/xlink" width="20" height="20" viewBox="0 0 20 20">
  <defs>
    <clipPath id="clip-path">
      <rect id="Rectangle_3154" data-name="Rectangle 3154" width="20" height="20" transform="translate(1319 379)" fill="#4a5764"/>
    </clipPath>
  </defs>
  <g id="icon-07" transform="translate(-1319 -379)" clip-path="url(#clip-path)">
    <g id="Private_lessons" data-name="Private lessons" transform="translate(1319 379)">
      <path id="Path_21212" data-name="Path 21212" d="M18.629,14.605h-.037a.323.323,0,1,1,0-.645h.037a.727.727,0,0,0,.726-.726V1.371a.727.727,0,0,0-.726-.726H1.371a.727.727,0,0,0-.726.726V13.234a.727.727,0,0,0,.726.726H5.525a.323.323,0,1,1,0,.645H1.371A1.372,1.372,0,0,1,0,13.234V1.371A1.372,1.372,0,0,1,1.371,0H18.629A1.373,1.373,0,0,1,20,1.371V13.234A1.372,1.372,0,0,1,18.629,14.605Z" fill="#4a5764"/>
      <path id="Path_21213" data-name="Path 21213" d="M8.439,3.427H4.194a.323.323,0,1,1,0-.645H8.439a.323.323,0,1,1,0,.645Zm7.368,0H11.561a.323.323,0,1,1,0-.645h4.245a.323.323,0,1,1,0,.645Zm-9.49,2.39H4.194a.323.323,0,1,1,0-.645H6.316a.323.323,0,1,1,0,.645Zm7.419,0H11.613a.323.323,0,1,1,0-.645h2.123a.323.323,0,1,1,0,.645Zm-1.567,4.867a4.373,4.373,0,0,1-.877-.083.323.323,0,0,1-.253-.315,3,3,0,0,1,6,0,.322.322,0,0,1-.319.322H16.7a2.377,2.377,0,0,1-1.922-1,3.359,3.359,0,0,1-2.615,1.073Zm-.469-.671a2.809,2.809,0,0,0,2.858-1.2.322.322,0,0,1,.589.065,1.532,1.532,0,0,0,1.221,1.045,2.357,2.357,0,0,0-4.669.091ZM5.047,13.494a.323.323,0,0,1-.3-.2l-.93-2.215A1.382,1.382,0,0,1,6.361,10l0,.006.909,2.17a.322.322,0,0,1-.164.419l-1.929.873A.321.321,0,0,1,5.047,13.494ZM5.088,9.8a.734.734,0,0,0-.733.735h0a.751.751,0,0,0,.06.292l.8,1.909,1.341-.607-.788-1.88A.742.742,0,0,0,5.088,9.8Z" fill="#4a5764"/>
      <path id="Path_21214" data-name="Path 21214" d="M18.65,20H10.1a.761.761,0,0,1-.76-.76V15.8H6.867a1.577,1.577,0,0,1-1.454-.963L4.751,13.3a.323.323,0,0,1,.164-.421L6.843,12a.323.323,0,0,1,.427.161l0,0,.335.763a.171.171,0,0,0,.158.107h5.023a.323.323,0,1,1,0,.645H7.764a.814.814,0,0,1-.751-.5l-.2-.461-1.343.608.538,1.253a.933.933,0,0,0,.861.571h2.8a.322.322,0,0,1,.323.322V19.24a.115.115,0,0,0,.115.115H18.65a.115.115,0,0,0,.115-.115V15.733a2.051,2.051,0,0,0-2.049-2.049H15.3a.323.323,0,1,1,0-.645h1.419a2.7,2.7,0,0,1,2.694,2.694V19.24a.761.761,0,0,1-.76.76Z" fill="#4a5764"/>
      <path id="Path_21215" data-name="Path 21215" d="M16.775,20a.322.322,0,0,1-.323-.322V15.549a.323.323,0,1,1,.645,0v4.128a.322.322,0,0,1-.322.323ZM4.193,13.494a.322.322,0,0,1-.29-.463l3.71-7.676a.323.323,0,1,1,.582.278v0l-3.71,7.676a.323.323,0,0,1-.291.182Zm9.849.881a1.8,1.8,0,0,1-1.528-.84.322.322,0,0,1-.05-.173v-.52a3,3,0,0,1-1.426-2.554.323.323,0,0,1,.392-.315c.09.019,2.211.461,3.128-1.16a.322.322,0,0,1,.589.065,1.672,1.672,0,0,0,1.568,1.087.347.347,0,0,1,.23.093.322.322,0,0,1,.1.229,3,3,0,0,1-1.423,2.554v.52a.323.323,0,0,1-.05.173,1.8,1.8,0,0,1-1.527.84h0Zm-.932-1.113a1.163,1.163,0,0,0,1.865,0v-.607a.323.323,0,0,1,.17-.285,2.361,2.361,0,0,0,1.234-1.787,2.32,2.32,0,0,1-1.595-.971,3.564,3.564,0,0,1-3.069,1.052,2.36,2.36,0,0,0,1.224,1.706.323.323,0,0,1,.171.285Z" fill="#4a5764"/>
    </g>
  </g>
</svg>
