<svg xmlns="http://www.w3.org/2000/svg" width="20" height="17.271" viewBox="0 0 20 17.271">
  <g id="icon-12" transform="translate(-1319 -380.365)">
    <g id="coupons" transform="translate(1318.091 378.092)">
      <path id="Path_21222" data-name="Path 21222" d="M5.455,7.489A.455.455,0,0,0,5,7.944v.987a.455.455,0,0,0,.909,0V7.944a.455.455,0,0,0-.455-.455Zm0,2.469A.455.455,0,0,0,5,10.413V11.4a.455.455,0,0,0,.909,0v-.987A.455.455,0,0,0,5.455,9.958Zm0,2.469A.455.455,0,0,0,5,12.882v.987a.455.455,0,0,0,.909,0v-.987A.455.455,0,0,0,5.455,12.427Z" fill="#4a5764"/>
      <path id="Path_21223" data-name="Path 21223" d="M4.03,2.274a1.372,1.372,0,0,0-1.188.93L2.237,5.031A1.45,1.45,0,0,0,.909,6.465V8.274a.455.455,0,0,0,.315.432,1.818,1.818,0,0,1,1.049,1.768,1.818,1.818,0,0,1-1.049,1.768.455.455,0,0,0-.315.433v2.716a1.453,1.453,0,0,0,1.446,1.446H9.531l7.717,2.635a1.367,1.367,0,0,0,1.727-.865l.589-1.781a1.449,1.449,0,0,0,1.344-1.435V12.674a.455.455,0,0,0-.315-.432,1.818,1.818,0,0,1-1.049-1.768,1.819,1.819,0,0,1,1.049-1.768.455.455,0,0,0,.315-.432V6.465A1.453,1.453,0,0,0,19.463,5.02H12.289L4.573,2.338a1.967,1.967,0,0,0-.542-.065Zm.067.9a.471.471,0,0,1,.182.024L9.517,5.02H3.2l.506-1.532A.442.442,0,0,1,4.1,3.175ZM2.355,5.929H5v.432a.455.455,0,0,0,.909,0V5.929H19.463A.526.526,0,0,1,20,6.465V8.013a2.737,2.737,0,0,0-1.364,2.461A2.737,2.737,0,0,0,20,12.934v2.457a.526.526,0,0,1-.537.537H5.908c0-.157,0-.318,0-.477a.455.455,0,1,0-.909,0c0,.158,0,.321,0,.477H2.355a.526.526,0,0,1-.537-.537V12.935a2.737,2.737,0,0,0,1.364-2.461,2.736,2.736,0,0,0-1.364-2.46V6.465a.526.526,0,0,1,.537-.537Zm9.989,10.909H18.6l-.491,1.484a.443.443,0,0,1-.57.291Z" fill="#4a5764"/>
      <path id="Path_21224" data-name="Path 21224" d="M14.892,11.618a1.475,1.475,0,1,1-1.475,1.474,1.481,1.481,0,0,1,1.475-1.474Zm0,.909a.566.566,0,1,0,.565.565.559.559,0,0,0-.565-.565ZM10.564,7.29A1.475,1.475,0,1,1,9.088,8.764,1.482,1.482,0,0,1,10.564,7.29Zm0,.909a.565.565,0,1,0,.565.565.56.56,0,0,0-.565-.565Zm4.007.244-4.329,4.329a.455.455,0,1,0,.643.643l4.329-4.329a.455.455,0,0,0,0-.643A.462.462,0,0,0,14.57,8.443Z" fill="#4a5764"/>
    </g>
  </g>
</svg>
