<svg xmlns="http://www.w3.org/2000/svg" width="20" height="18.824" viewBox="0 0 20 18.824">
  <g id="icon-02" transform="translate(0 -0.588)">
    <path id="Path_21154" data-name="Path 21154" d="M.88,3.234H19.708V16.472H.88Z" fill="#ecf4ff"/>
    <path id="Path_21156" data-name="Path 21156" d="M14.119,16.472v2.353c0,.324-.612.29-.991.29l-6.514-.007c-.378,0-.732.041-.732-.283V16.472a.641.641,0,0,1,.684-.586h6.869A.641.641,0,0,1,14.119,16.472Z" fill="#4a5764"/>
    <path id="Path_21157" data-name="Path 21157" d="M14.119,16.472v2.353c0,.324-.317.356-.7.356L10,19.249V15.886h3.434A.641.641,0,0,1,14.119,16.472Z" fill="#4a5764"/>
    <path id="Path_21158" data-name="Path 21158" d="M16.47,18.826a.586.586,0,0,1-.586.586H4.116a.586.586,0,0,1,0-1.172H10l4.535.4C14.858,18.643,16.47,18.5,16.47,18.826Z" fill="#4a5764"/>
    <path id="Path_21159" data-name="Path 21159" d="M16.47,18.826a.586.586,0,0,1-.586.586H10V18.24h5.884A.586.586,0,0,1,16.47,18.826Z" fill="#4a5764"/>
    <path id="Path_21160" data-name="Path 21160" d="M20,3.234V16.472a.586.586,0,0,1-.586.586H.586A.586.586,0,0,1,0,16.472V3.234a.586.586,0,0,1,.586-.586h3.53a.586.586,0,0,1,0,1.172H1.172V15.886H18.828V3.82h-2.65a.586.586,0,1,1,0-1.172h3.236A.586.586,0,0,1,20,3.234Z" fill="#4a5764"/>
    <path id="Path_21161" data-name="Path 21161" d="M20,3.234V16.472a.586.586,0,0,1-.586.586H10V15.886h8.828V3.82h-2.65a.586.586,0,1,1,0-1.172h3.236A.586.586,0,0,1,20,3.234Z" fill="#4a5764"/>
    <path id="Path_21162" data-name="Path 21162" d="M14.41,4.018V6.764a.586.586,0,0,1-.376.547L10,8.821a34.462,34.462,0,0,1-4.035-1.51.586.586,0,0,1-.375-.547V3.955a.586.586,0,0,1,1.172,0c0,.008-.289,0,6.477.059a.586.586,0,0,1,1.172,0Z" fill="#4a5764"/>
    <path id="Path_21163" data-name="Path 21163" d="M14.41,4.018V6.764a.586.586,0,0,1-.376.547A33.005,33.005,0,0,1,10,8.821V3.987l3.239.027a.586.586,0,0,1,1.172,0Z" fill="#4a5764"/>
    <path id="Path_21164" data-name="Path 21164" d="M16.764,3.234V7.352a.586.586,0,0,1-1.172,0l.246-3.739L10,5.879c-.143,0-.084,0-6.077-2.092a.587.587,0,0,1,0-1.107C9.909.586,9.857.588,10,.588l5.725,2.327C15.965,2.995,16.764,2.981,16.764,3.234Z" fill="#4a5764"/>
    <path id="Path_21165" data-name="Path 21165" d="M16.764,3.234V7.352a.586.586,0,0,1-1.172,0V4.047C10.121,5.881,10.137,5.879,10,5.879V.588c.136,0,.073,0,6.363,2.09a.586.586,0,0,1,.4.556Z" fill="#4a5764"/>
    <path id="Path_21166" data-name="Path 21166" d="M5.293,10.591H2.94a.586.586,0,0,0-.586.586V13.53a.586.586,0,0,0,.586.586H5.293a.586.586,0,0,0,.586-.586V11.177A.586.586,0,0,0,5.293,10.591Z" fill="#4a5764"/>
    <path id="Path_21167" data-name="Path 21167" d="M17.647,11.177a.586.586,0,0,1-.586.586H7.646a.586.586,0,1,1,0-1.172h9.414A.586.586,0,0,1,17.647,11.177Zm0,2.353a.586.586,0,0,1-.586.586H7.646a.586.586,0,1,1,0-1.172h9.414A.586.586,0,0,1,17.647,13.53Z" fill="#4a5764"/>
    <g id="Group_14338" data-name="Group 14338">
      <path id="Path_21168" data-name="Path 21168" d="M17.647,13.53a.586.586,0,0,1-.586.586H10V12.944h7.061a.586.586,0,0,1,.586.586Zm-.586-1.767H10V10.591h7.061a.586.586,0,0,1,0,1.172Z" fill="#4a5764"/>
    </g>
  </g>
</svg>
