<svg xmlns="http://www.w3.org/2000/svg" width="14.217" height="20" viewBox="0 0 14.217 20">
  <g id="icon-16" transform="translate(-3.893 -1)">
    <path id="Path_21241" data-name="Path 21241" d="M16.293,4.1H14.737V3.56a.8.8,0,0,0-.8-.8H13.2a.189.189,0,0,1-.187-.137,2.06,2.06,0,0,0-4.027,0A.189.189,0,0,1,8.8,2.76H8.063a.8.8,0,0,0-.8.8V4.1H5.707A1.815,1.815,0,0,0,3.893,5.913V19.187A1.815,1.815,0,0,0,5.707,21H16.3a1.815,1.815,0,0,0,1.813-1.813V5.913A1.82,1.82,0,0,0,16.293,4.1ZM7.867,3.56a.2.2,0,0,1,.2-.2H8.8a.791.791,0,0,0,.777-.613,1.457,1.457,0,0,1,2.847,0,.794.794,0,0,0,.777.613h.737a.2.2,0,0,1,.2.2V5.247a.2.2,0,0,1-.2.2H8.063a.2.2,0,0,1-.2-.2ZM17.5,19.187a1.212,1.212,0,0,1-1.21,1.21H5.707a1.212,1.212,0,0,1-1.21-1.21V5.913A1.212,1.212,0,0,1,5.707,4.7H7.263v.54a.8.8,0,0,0,.8.8h5.873a.8.8,0,0,0,.8-.8V4.7h1.557a1.212,1.212,0,0,1,1.21,1.21Z" fill="#4a5764"/>
    <path id="Path_21242" data-name="Path 21242" d="M11,4.183a1.052,1.052,0,1,0-1.053-1.05A1.056,1.056,0,0,0,11,4.183Zm0-1.5a.447.447,0,1,1-.447.447A.447.447,0,0,1,11,2.683ZM7.84,7.257H6.62a.908.908,0,0,0-.907.907v1.22a.908.908,0,0,0,.907.907H7.84a.908.908,0,0,0,.907-.907V8.163A.908.908,0,0,0,7.84,7.257Zm.3,2.127a.3.3,0,0,1-.3.3H6.617a.3.3,0,0,1-.3-.3V8.163a.3.3,0,0,1,.3-.3h1.22a.3.3,0,0,1,.3.3Zm-.3,2.26H6.62a.908.908,0,0,0-.907.907v1.22a.908.908,0,0,0,.907.907H7.84a.908.908,0,0,0,.907-.907V12.55A.908.908,0,0,0,7.84,11.643Zm.3,2.127a.3.3,0,0,1-.3.3H6.617a.3.3,0,0,1-.3-.3V12.55a.3.3,0,0,1,.3-.3h1.22a.3.3,0,0,1,.3.3Zm-.3,2.263H6.62a.908.908,0,0,0-.907.907v1.22a.908.908,0,0,0,.907.907H7.84a.908.908,0,0,0,.907-.907V16.94A.908.908,0,0,0,7.84,16.033Zm.3,2.127a.3.3,0,0,1-.3.3H6.617a.3.3,0,0,1-.3-.3V16.94a.3.3,0,0,1,.3-.3h1.22a.3.3,0,0,1,.3.3ZM15.353,7.773h-5.1a.3.3,0,0,0,0,.607h5.1a.3.3,0,0,0,0-.607Zm-5.1,2h2.717a.3.3,0,0,0,0-.607H10.25a.3.3,0,0,0,0,.607Zm5.1,2.387h-5.1a.3.3,0,0,0,0,.607h5.1a.3.3,0,1,0,0-.607Zm-5.1,2h2.717a.3.3,0,0,0,0-.607H10.25a.3.3,0,1,0,0,.607Zm5.1,2.39h-5.1a.3.3,0,0,0,0,.607h5.1a.3.3,0,0,0,0-.607Zm-2.387,1.4H10.25a.3.3,0,1,0,0,.607h2.717a.3.3,0,0,0,0-.607Z" fill="#4a5764"/>
  </g>
</svg>
