<svg xmlns="http://www.w3.org/2000/svg" xmlns:xlink="http://www.w3.org/1999/xlink" width="20" height="20" viewBox="0 0 20 20">
  <defs>
    <clipPath id="clip-path">
      <rect id="Rectangle_3154" data-name="Rectangle 3154" width="20" height="20" transform="translate(1319 379)" fill="#4a5764"/>
    </clipPath>
  </defs>
  <g id="icon-04" transform="translate(-1319 -379)" clip-path="url(#clip-path)">
    <g id="Testimonials" transform="translate(1316.826 376.826)">
      <path id="Path_21188" data-name="Path 21188" d="M13.756,9.584a.427.427,0,0,0-.156.478l.741,2.279L12.4,10.933a.427.427,0,0,0-.5,0L9.96,12.341l.741-2.279a.427.427,0,0,0-.155-.479L8.607,8.175H11a.427.427,0,0,0,.407-.3l.741-2.28.74,2.28a.428.428,0,0,0,.407.3h2.4Zm3.1-1.786a.427.427,0,0,0-.407-.3H13.476l-.918-2.826a.429.429,0,0,0-.814,0L10.826,7.5H7.854a.429.429,0,0,0-.251.774l2.4,1.747-.918,2.826a.428.428,0,0,0,.659.478l2.4-1.747,2.4,1.747a.428.428,0,0,0,.659-.478L14.3,10.023l2.4-1.746a.427.427,0,0,0,.156-.478Zm-1,11.556a.557.557,0,0,0-.761.2l-.9,1.55-1.209-4.513a7.182,7.182,0,0,0,3.132-1.132l1.283,4.786ZM5.613,9.408a6.561,6.561,0,1,0,6.562-6.561A6.569,6.569,0,0,0,5.613,9.408Zm4.532,11.7-.895-1.55a.558.558,0,0,0-.761-.2l-1.55.9,1.282-4.786a7.183,7.183,0,0,0,3.132,1.132Zm6.565-6.069a7.234,7.234,0,1,0-9.07,0l-1.5,5.614a.425.425,0,0,0,.622.478l1.968-1.136,1.137,1.968a.425.425,0,0,0,.778-.1l1.4-5.22h.273l1.4,5.22a.425.425,0,0,0,.778.1l1.137-1.968,1.968,1.136a.425.425,0,0,0,.622-.478Z" fill="#4a5764" fill-rule="evenodd"/>
    </g>
  </g>
</svg>
