<svg xmlns="http://www.w3.org/2000/svg" xmlns:xlink="http://www.w3.org/1999/xlink" width="20" height="20" viewBox="0 0 20 20">
  <defs>
    <clipPath id="clip-path">
      <rect id="Rectangle_3154" data-name="Rectangle 3154" width="20" height="20" transform="translate(1319 379)" fill="#4a5764"/>
    </clipPath>
  </defs>
  <g id="icon-06" transform="translate(-1319 -379)" clip-path="url(#clip-path)">
    <g id="Course_packages" data-name="Course packages" transform="translate(1318.565 378.564)">
      <path id="Path_21207" data-name="Path 21207" d="M20.217.435H4.13a.217.217,0,0,0-.217.217v1.3H3.261a.217.217,0,0,0-.217.217v1.3H2.391a.217.217,0,0,0-.217.217V5H1.522a.217.217,0,0,0-.217.217V5.87a.217.217,0,1,0,.435,0V5.435H17.391V7.174h-.435V6.739a.217.217,0,0,0-.217-.217H.652a.217.217,0,0,0-.217.217V20.217a.217.217,0,0,0,.217.217H16.739a.217.217,0,0,0,.217-.217v-1.3h.652a.217.217,0,0,0,.217-.217v-1.3h.652a.217.217,0,0,0,.217-.217v-1.3h.652a.217.217,0,0,0,.217-.217v-1.3h.652a.217.217,0,0,0,.217-.217V.652A.217.217,0,0,0,20.217.435ZM4.348.87H20V2.609h-.435V2.174a.217.217,0,0,0-.217-.217h-15Zm-.87,1.522H19.13V4.13H18.7V3.7a.217.217,0,0,0-.217-.217h-15ZM2.609,5V3.913H18.261V5.652h-.435V5.217A.217.217,0,0,0,17.609,5ZM16.522,20H.87V9.13h15a.217.217,0,1,0,0-.435H.87V6.957H16.522Zm.435-1.522V7.609h.435v10.87Zm.87-1.522V6.087h.435v10.87Zm.87-1.522V4.565h.435v10.87Zm.87-1.522V3.043H20v10.87Z" fill="#4a5764"/>
      <path id="Path_21208" data-name="Path 21208" d="M15.87,7.609H8.478a.217.217,0,1,0,0,.435H15.87a.217.217,0,0,0,0-.435Z" fill="#4a5764"/>
      <circle id="Ellipse_287" data-name="Ellipse 287" cx="0.217" cy="0.217" r="0.217" transform="translate(3.261 7.609)" fill="#4a5764"/>
      <circle id="Ellipse_288" data-name="Ellipse 288" cx="0.217" cy="0.217" r="0.217" transform="translate(2.391 7.609)" fill="#4a5764"/>
      <circle id="Ellipse_289" data-name="Ellipse 289" cx="0.217" cy="0.217" r="0.217" transform="translate(1.522 7.609)" fill="#4a5764"/>
      <path id="Path_21209" data-name="Path 21209" d="M9.565,9.783H1.739A.217.217,0,0,0,1.522,10v6.522a.217.217,0,0,0,.217.217H6.522a.217.217,0,1,0,0-.435H1.957V10.217H9.348V16.3H8.261a.217.217,0,1,0,0,.435h1.3a.217.217,0,0,0,.217-.217V10A.217.217,0,0,0,9.565,9.783Z" fill="#4a5764"/>
      <path id="Path_21210" data-name="Path 21210" d="M7.054,13.066,4.88,11.979a.217.217,0,0,0-.315.195v2.174a.218.218,0,0,0,.315.195l2.174-1.087a.218.218,0,0,0,0-.389ZM5,14v-1.47l1.47.735Z" fill="#4a5764"/>
      <path id="Path_21211" data-name="Path 21211" d="M8.043,13.261a2.391,2.391,0,1,0-2.391,2.391A2.394,2.394,0,0,0,8.043,13.261ZM5.652,15.217a1.957,1.957,0,1,1,1.957-1.957A1.959,1.959,0,0,1,5.652,15.217Zm10-5.435h-5a.217.217,0,0,0-.217.217v2.391a.217.217,0,0,0,.217.217h5a.217.217,0,0,0,.217-.217V10A.217.217,0,0,0,15.652,9.783Zm-4.783.435h1.739v1.957H10.87Zm4.565,1.957H13.043V10.217h2.391Zm.217.87h-5a.217.217,0,0,0-.217.217v2.391a.217.217,0,0,0,.217.217h5a.217.217,0,0,0,.217-.217V13.261A.217.217,0,0,0,15.652,13.043Zm-4.783.435h1.739v1.957H10.87Zm4.565,1.957H13.043V13.478h2.391Zm.217.87h-5a.217.217,0,0,0-.217.217v2.391a.217.217,0,0,0,.217.217h1.3a.217.217,0,1,0,0-.435H10.87V16.739h1.739v2.174a.217.217,0,0,0,.217.217h2.826a.217.217,0,0,0,.217-.217V16.522A.217.217,0,0,0,15.652,16.3ZM15.435,18.7H13.043V16.739h2.391ZM2.609,17.174h-.87a.217.217,0,0,0,0,.435h.87a.217.217,0,0,0,0-.435Zm6.957,0H3.478a.217.217,0,0,0,0,.435H9.565a.217.217,0,0,0,0-.435Zm-6.957.87h-.87a.217.217,0,1,0,0,.435h.87a.217.217,0,1,0,0-.435Zm6.957,0H3.478a.217.217,0,1,0,0,.435H9.565a.217.217,0,1,0,0-.435Zm-6.957.87h-.87a.217.217,0,0,0,0,.435h.87a.217.217,0,0,0,0-.435Zm6.957,0H3.478a.217.217,0,0,0,0,.435H9.565a.217.217,0,0,0,0-.435Z" fill="#4a5764"/>
      <circle id="Ellipse_290" data-name="Ellipse 290" cx="0.217" cy="0.217" r="0.217" transform="translate(7.174 16.304)" fill="#4a5764"/>
    </g>
  </g>
</svg>
