<svg xmlns="http://www.w3.org/2000/svg" xmlns:xlink="http://www.w3.org/1999/xlink" width="15.174" height="20" viewBox="0 0 15.174 20">
  <defs>
    <clipPath id="clip-path">
      <circle id="Ellipse_291" data-name="Ellipse 291" cx="3.139" cy="3.139" r="3.139" transform="translate(4.096 5.096)" fill="#4a5764"/>
    </clipPath>
  </defs>
  <g id="icon-11" transform="translate(-1321.413 -1107.999)">
    <g id="Group_15031" data-name="Group 15031" transform="translate(0 729)">
      <g id="Educational_reports" data-name="Educational reports" transform="translate(1317.965 377.965)">
        <path id="Path_21221" data-name="Path 21221" d="M10.69,15.172a.345.345,0,0,1-.345.345H6.552a.345.345,0,1,1,0-.69h3.793A.345.345,0,0,1,10.69,15.172ZM6.552,10h8.966a.345.345,0,0,0,0-.69H6.552a.345.345,0,0,0,0,.69Zm0-2.759h8.966a.345.345,0,1,0,0-.69H6.552a.345.345,0,1,0,0,.69Zm0-2.759h6.207a.345.345,0,1,0,0-.69H6.552a.345.345,0,1,0,0,.69ZM18.621,19.31A1.726,1.726,0,0,1,16.9,21.034H5.172A1.726,1.726,0,0,1,3.448,19.31V2.759A1.726,1.726,0,0,1,5.172,1.034h8.966a.394.394,0,0,1,.244.1l4.137,4.137a.354.354,0,0,1,.1.223C18.629,5.514,18.617,19.289,18.621,19.31ZM14.483,4.138a1.036,1.036,0,0,0,1.034,1.034h1.926L14.483,2.212ZM17.931,19.31V5.862H15.517a1.726,1.726,0,0,1-1.724-1.724V1.724H5.172A1.036,1.036,0,0,0,4.138,2.759V19.31a1.036,1.036,0,0,0,1.034,1.034H16.9A1.036,1.036,0,0,0,17.931,19.31Zm-7.586-7.241H6.552a.345.345,0,1,0,0,.69h3.793a.345.345,0,1,0,0-.69Zm4.511,2.894-.9-2.894-.334,2.414-.206.481a.345.345,0,0,1-.634-.272l1.034-2.414a.345.345,0,0,1,.634,0A20.606,20.606,0,0,1,14.856,14.963Zm-.5-1.17-.216-.5-.216.5Zm-.393,0c0,.916,2.88,1.738,2.247,2.307l-.87-.4c0,.124-1.307-.937-1.415-.876s1.22,2.133,1.113,2.069l-.58-.508.58-1.425c-.107.064-.788.615-.9.554s.244-.43.243-.554L12.069,16.1c-.633-.569,2.787-1.156,2.787-2.072,0-1.711-1.05,2.072.662,2.072S13.96,12.082,13.96,13.793Zm1.557,2.776a3.068,3.068,0,0,1-2.759,0l1.557-1.4L13.96,17.98a.345.345,0,0,1,.355,0l.72-1.592Zm-1.062-3.28c0-1.331,2.212,2.228.882,2.228s-.3-3.055-.3-1.724-2.228,2.414-.9,2.414S14.455,14.62,14.455,13.289Z" fill="#4a5764"/>
        <rect id="Rectangle_3155" data-name="Rectangle 3155" width="6" height="8" transform="translate(11.035 11.035)" fill="#eff5f8"/>
      </g>
    </g>
    <g id="Mask_Group_95" data-name="Mask Group 95" transform="translate(1324.854 1112.904)" clip-path="url(#clip-path)">
      <path id="dollar-svgrepo-com" d="M9.969,8.136v.942H10.6V8.136h.314a1.255,1.255,0,1,0,0-2.511H10.6V4.369h.628V5h.628V3.742H10.6V2.8H9.969v.942H9.655a1.255,1.255,0,0,0,0,2.511h.314V7.508H9.342V6.88H8.714V8.136Zm.628-.628h.314a.628.628,0,0,0,0-1.255H10.6ZM9.969,5.625V4.369H9.655a.628.628,0,0,0,0,1.255Z" transform="translate(-3.049 2.296)" fill="#4a5764" fill-rule="evenodd"/>
    </g>
  </g>
</svg>
