<svg xmlns="http://www.w3.org/2000/svg" width="15.174" height="20" viewBox="0 0 15.174 20">
  <g id="icon-10" transform="translate(-1321.413 -378.999)">
    <g id="Educational_reports" data-name="Educational reports" transform="translate(1317.965 377.965)">
      <path id="Path_21220" data-name="Path 21220" d="M10.69,15.172a.345.345,0,0,1-.345.345H6.552a.345.345,0,1,1,0-.69h3.793A.345.345,0,0,1,10.69,15.172ZM6.552,10h8.966a.345.345,0,0,0,0-.69H6.552a.345.345,0,0,0,0,.69Zm0-2.759h8.966a.345.345,0,1,0,0-.69H6.552a.345.345,0,1,0,0,.69Zm0-2.759h6.207a.345.345,0,1,0,0-.69H6.552a.345.345,0,1,0,0,.69ZM18.621,19.31A1.726,1.726,0,0,1,16.9,21.034H5.172A1.726,1.726,0,0,1,3.448,19.31V2.759A1.726,1.726,0,0,1,5.172,1.034h8.966a.394.394,0,0,1,.244.1l4.137,4.137a.354.354,0,0,1,.1.223C18.629,5.514,18.617,19.289,18.621,19.31ZM14.483,4.138a1.036,1.036,0,0,0,1.034,1.034h1.926L14.483,2.212ZM17.931,19.31V5.862H15.517a1.726,1.726,0,0,1-1.724-1.724V1.724H5.172A1.036,1.036,0,0,0,4.138,2.759V19.31a1.036,1.036,0,0,0,1.034,1.034H16.9A1.036,1.036,0,0,0,17.931,19.31Zm-7.586-7.241H6.552a.345.345,0,1,0,0,.69h3.793a.345.345,0,1,0,0-.69Zm5.144,2.623a.345.345,0,0,1-.634.272l-.206-.481H13.627l-.206.481a.345.345,0,0,1-.634-.272l1.034-2.414a.345.345,0,0,1,.634,0Zm-1.136-.9-.216-.5-.216.5Zm2.888,0A3.094,3.094,0,0,1,16.207,16.1V19.31a.344.344,0,0,1-.522.3l-1.547-.928-1.547.928a.345.345,0,0,1-.522-.3V16.1a3.1,3.1,0,1,1,5.172-2.307Zm-1.724,2.776a3.068,3.068,0,0,1-2.759,0V18.7l1.2-.721a.345.345,0,0,1,.355,0l1.2.721Zm1.034-2.776a2.414,2.414,0,1,0-2.414,2.414A2.417,2.417,0,0,0,16.552,13.793Z" fill="#4a5764"/>
    </g>
  </g>
</svg>
