<svg xmlns="http://www.w3.org/2000/svg" xmlns:xlink="http://www.w3.org/1999/xlink" width="20" height="20" viewBox="0 0 20 20">
  <defs>
    <clipPath id="clip-path">
      <rect id="Rectangle_3154" data-name="Rectangle 3154" width="20" height="20" transform="translate(1319 379)" fill="#4a5764"/>
    </clipPath>
  </defs>
  <g id="icon-08" transform="translate(-1319 -379)" clip-path="url(#clip-path)">
    <g id="Online_store" data-name="Online store" transform="translate(1317.837 377.836)">
      <path id="Path_21216" data-name="Path 21216" d="M2.093,9.465a.7.7,0,0,1,1.4,0v7.907a2.093,2.093,0,0,0,2.093,2.093H16.745a2.093,2.093,0,0,0,2.093-2.093V9.465a.7.7,0,1,1,1.4,0v7.907a3.488,3.488,0,0,1-3.488,3.488H5.582a3.488,3.488,0,0,1-3.488-3.488Z" fill="#4a5764"/>
      <path id="Path_21217" data-name="Path 21217" d="M11.163,12.489a3.49,3.49,0,0,1,3.488,3.488v4.186a.7.7,0,0,1-1.4,0V15.977a2.093,2.093,0,0,0-4.186,0v4.186a.7.7,0,0,1-1.4,0V15.977A3.49,3.49,0,0,1,11.163,12.489ZM8.32,2.163V7.4a3.559,3.559,0,0,1-3.559,3.558A3.6,3.6,0,0,1,1.27,6.484l.74-2.957a2.721,2.721,0,0,1,2.64-2.061H7.623a.7.7,0,0,1,.7.7Zm-1.4.7H4.649a1.325,1.325,0,0,0-1.286,1l-.74,2.958A2.2,2.2,0,0,0,4.761,9.558,2.164,2.164,0,0,0,6.925,7.4Zm7.779-1.4h2.973a2.721,2.721,0,0,1,2.64,2.061l.74,2.957a3.6,3.6,0,0,1-3.491,4.47A3.559,3.559,0,0,1,14.006,7.4V2.163a.7.7,0,0,1,.7-.7Zm.7,1.4V7.4a2.164,2.164,0,0,0,2.164,2.163A2.2,2.2,0,0,0,19.7,6.823l-.74-2.958a1.325,1.325,0,0,0-1.286-1Z" fill="#4a5764"/>
      <path id="Path_21218" data-name="Path 21218" d="M7.615,1.465H14.7a.7.7,0,0,1,.7.7l0,5.061a3.732,3.732,0,0,1-3.732,3.729H10.651A3.733,3.733,0,0,1,6.917,7.222V2.163a.7.7,0,0,1,.7-.7Zm.7,1.4V7.222a2.338,2.338,0,0,0,2.338,2.337h1.014A2.336,2.336,0,0,0,14,7.223l0-4.363Z" fill="#4a5764"/>
    </g>
  </g>
</svg>
