<svg xmlns="http://www.w3.org/2000/svg" xmlns:xlink="http://www.w3.org/1999/xlink" width="20" height="20" viewBox="0 0 20 20">
  <defs>
    <clipPath id="clip-path">
      <path id="Path_21244" data-name="Path 21244" d="M0,0H20V20H0Z" transform="translate(1319 1760)" fill="#4a5764"/>
    </clipPath>
  </defs>
  <g id="icon-18" transform="translate(-1319 -1760)" clip-path="url(#clip-path)">
    <g id="setting" transform="translate(1319 1760)">
      <path id="Path_21245" data-name="Path 21245" d="M10.933,20H9.067a1.248,1.248,0,0,1-1.238-1.1l-.2-1.563a7.875,7.875,0,0,1-1.145-.474l-1.245.968a1.243,1.243,0,0,1-1.654-.1L2.272,16.412a1.24,1.24,0,0,1-.1-1.649l.967-1.246a7.693,7.693,0,0,1-.474-1.145l-1.567-.2A1.251,1.251,0,0,1,0,10.933V9.067A1.248,1.248,0,0,1,1.1,7.828l1.563-.2a7.875,7.875,0,0,1,.474-1.145L2.171,5.239a1.242,1.242,0,0,1,.106-1.655L3.589,2.272a1.241,1.241,0,0,1,1.649-.1l1.245.968a7.847,7.847,0,0,1,1.146-.474l.2-1.567A1.248,1.248,0,0,1,9.067,0h1.867a1.248,1.248,0,0,1,1.238,1.1l.2,1.563a7.847,7.847,0,0,1,1.146.474l1.245-.967a1.242,1.242,0,0,1,1.654.106l1.313,1.313a1.24,1.24,0,0,1,.1,1.649l-.968,1.246a7.693,7.693,0,0,1,.474,1.145l1.567.2A1.25,1.25,0,0,1,20,9.067v1.867a1.248,1.248,0,0,1-1.1,1.238l-1.563.2a7.875,7.875,0,0,1-.474,1.145l.968,1.245a1.242,1.242,0,0,1-.106,1.654l-1.312,1.313a1.239,1.239,0,0,1-1.649.1l-1.246-.967a7.693,7.693,0,0,1-1.145.474l-.2,1.567A1.25,1.25,0,0,1,10.933,20ZM6.442,15.95a.422.422,0,0,1,.2.052,6.994,6.994,0,0,0,1.478.613.417.417,0,0,1,.3.347L8.655,18.8a.421.421,0,0,0,.412.37h1.867a.42.42,0,0,0,.411-.366l.234-1.837a.417.417,0,0,1,.3-.347A6.994,6.994,0,0,0,13.355,16a.416.416,0,0,1,.458.035l1.458,1.133a.41.41,0,0,0,.546-.028l1.321-1.321a.412.412,0,0,0,.032-.55l-1.133-1.458A.417.417,0,0,1,16,13.356a6.994,6.994,0,0,0,.613-1.478.417.417,0,0,1,.348-.3l1.833-.233a.422.422,0,0,0,.37-.413V9.067a.42.42,0,0,0-.366-.411l-1.837-.234a.417.417,0,0,1-.347-.3A6.994,6.994,0,0,0,16,6.645a.414.414,0,0,1,.035-.458l1.133-1.458a.408.408,0,0,0-.028-.545L15.823,2.862a.41.41,0,0,0-.55-.033L13.815,3.963A.417.417,0,0,1,13.356,4a6.966,6.966,0,0,0-1.478-.613.417.417,0,0,1-.3-.347L11.346,1.2a.422.422,0,0,0-.412-.371H9.067a.42.42,0,0,0-.411.366L8.422,3.036a.418.418,0,0,1-.3.348A6.963,6.963,0,0,0,6.645,4a.417.417,0,0,1-.459-.034L4.727,2.829a.408.408,0,0,0-.545.028L2.862,4.178a.412.412,0,0,0-.033.55L3.963,6.187A.417.417,0,0,1,4,6.645a6.951,6.951,0,0,0-.613,1.478.417.417,0,0,1-.348.3L1.2,8.655a.421.421,0,0,0-.37.412v1.867a.42.42,0,0,0,.366.411l1.837.234a.417.417,0,0,1,.347.3A6.994,6.994,0,0,0,4,13.355a.414.414,0,0,1-.035.458L2.828,15.272a.408.408,0,0,0,.027.545l1.321,1.321a.412.412,0,0,0,.55.032l1.458-1.133a.429.429,0,0,1,.257-.087Z" fill="#4a5764"/>
      <path id="Path_21246" data-name="Path 21246" d="M10,14.167A4.167,4.167,0,1,1,14.167,10,4.171,4.171,0,0,1,10,14.167Zm0-7.5A3.333,3.333,0,1,0,13.333,10,3.337,3.337,0,0,0,10,6.667Z" fill="#4a5764"/>
    </g>
  </g>
</svg>
