<svg xmlns="http://www.w3.org/2000/svg" width="20" height="15.625" viewBox="0 0 20 15.625">
  <g id="icon-13" transform="translate(0 -2.187)">
    <path id="Path_21225" data-name="Path 21225" d="M15,4.688a.312.312,0,0,1-.211-.082,7.292,7.292,0,0,0-9.579,0,.313.313,0,1,1-.421-.462,7.917,7.917,0,0,1,10.421,0A.313.313,0,0,1,15,4.688Z" fill="#4a5764"/>
    <path id="Path_21226" data-name="Path 21226" d="M15,4.688a.312.312,0,0,1-.306-.25l-.312-1.562a.313.313,0,0,1,.612-.125l.313,1.563a.312.312,0,0,1-.244.369A.3.3,0,0,1,15,4.688Z" fill="#4a5764"/>
    <path id="Path_21227" data-name="Path 21227" d="M15,4.688H13.438a.313.313,0,0,1,0-.625H15a.313.313,0,0,1,0,.625ZM10,17.813a7.906,7.906,0,0,1-5.211-1.957.313.313,0,0,1,.421-.462,7.292,7.292,0,0,0,9.579,0,.313.313,0,0,1,.421.462A7.906,7.906,0,0,1,10,17.813Z" fill="#4a5764"/>
    <path id="Path_21228" data-name="Path 21228" d="M5.313,17.5a.313.313,0,0,1-.306-.25l-.312-1.562a.313.313,0,0,1,.613-.122l.313,1.563a.312.312,0,0,1-.244.366.3.3,0,0,1-.063.006Z" fill="#4a5764"/>
    <path id="Path_21229" data-name="Path 21229" d="M6.563,15.938H5a.313.313,0,0,1,0-.625H6.563a.313.313,0,0,1,0,.625Zm-1.875-1.25A4.688,4.688,0,1,1,9.375,10,4.688,4.688,0,0,1,4.688,14.688Zm0-8.75A4.063,4.063,0,1,0,8.75,10,4.062,4.062,0,0,0,4.688,5.938Z" fill="#4a5764"/>
    <path id="Path_21230" data-name="Path 21230" d="M6.367,12.813a.65.65,0,0,1-.4-.141L4.688,11.65,3.412,12.671a.666.666,0,0,1-.943-.149.645.645,0,0,1-.055-.611l.6-1.41-1.324-.44a.645.645,0,0,1-.443-.613V9.353a.651.651,0,0,1,.555-.641l1.71-.244L4,7.005a.647.647,0,0,1,.614-.443h.142a.647.647,0,0,1,.614.443L5.86,8.468l1.709.244a.651.651,0,0,1,.556.641v.094a.646.646,0,0,1-.443.614l-1.324.44.6,1.409a.647.647,0,0,1-.595.9Zm-3.38-.656a.02.02,0,0,0,0,.021l.227.25-.195-.244,1.471-1.177a.312.312,0,0,1,.391,0l1.471,1.177.031,0-.736-1.742a.313.313,0,0,1,.188-.419l1.648-.548L7.5,9.353,5.581,9.059a.312.312,0,0,1-.253-.211L4.781,7.2l-.165-.015-.57,1.661a.313.313,0,0,1-.253.211l-1.9.271-.019.116,1.661.57a.312.312,0,0,1,.187.419Zm16.075,2.531h-7.5a.313.313,0,0,1-.312-.312V9.688a.313.313,0,0,1,.313-.312h7.5a.313.313,0,0,1,.313.313v4.688A.313.313,0,0,1,19.063,14.688Zm-7.187-.625H18.75V10H11.875Z" fill="#4a5764"/>
    <path id="Path_21231" data-name="Path 21231" d="M19.688,10h-8.75a.313.313,0,0,1-.312-.312V7.5a.313.313,0,0,1,.313-.312h8.75A.313.313,0,0,1,20,7.5V9.688A.313.313,0,0,1,19.688,10ZM11.25,9.375h8.125V7.813H11.25Z" fill="#4a5764"/>
    <path id="Path_21232" data-name="Path 21232" d="M15,7.5h.625v6.875H15Z" fill="#4a5764"/>
    <path id="Path_21233" data-name="Path 21233" d="M15.313,7.813c-3.48,0-3.75-.957-3.75-1.25,0-.433.327-1.25,1.563-1.25,1.427,0,2.425,1.964,2.469,2.048a.312.312,0,0,1-.281.452ZM12.189,6.534c.045.079.414.572,2.57.645-.367-.546-.984-1.241-1.634-1.241C12.3,5.938,12.2,6.41,12.189,6.534Z" fill="#4a5764"/>
    <path id="Path_21234" data-name="Path 21234" d="M15.313,7.813a.312.312,0,0,1-.281-.452c.043-.084,1.042-2.048,2.469-2.048,1.236,0,1.563.817,1.563,1.25C19.063,6.856,18.792,7.813,15.313,7.813ZM17.5,5.938c-.652,0-1.269.7-1.635,1.241,2.154-.073,2.525-.565,2.571-.645C18.422,6.388,18.313,5.938,17.5,5.938Z" fill="#4a5764"/>
    <path id="Path_21235" data-name="Path 21235" d="M16.563,9.063a.313.313,0,0,1-.312-.312c0-.68-1-.944-1.014-.947a.313.313,0,0,1,.153-.606c.061.015,1.487.385,1.487,1.553A.313.313,0,0,1,16.563,9.063Z" fill="#4a5764"/>
    <path id="Path_21236" data-name="Path 21236" d="M14.063,9.063a.313.313,0,0,1-.312-.312c0-1.168,1.426-1.538,1.487-1.553a.313.313,0,1,1,.153.606c-.01,0-1.014.267-1.014.947A.313.313,0,0,1,14.063,9.063Z" fill="#4a5764"/>
  </g>
</svg>
