<svg xmlns="http://www.w3.org/2000/svg" xmlns:xlink="http://www.w3.org/1999/xlink" width="20" height="20" viewBox="0 0 20 20">
  <defs>
    <clipPath id="clip-path">
      <rect id="Rectangle_3154" data-name="Rectangle 3154" width="20" height="20" transform="translate(1319 379)" fill="#4a5764"/>
    </clipPath>
  </defs>
  <g id="icon-14" transform="translate(-1319 -379)" clip-path="url(#clip-path)">
    <g id="message_1_" data-name="message (1)" transform="translate(1319 379)">
      <path id="Path_21237" data-name="Path 21237" d="M2.307,15.6a3.89,3.89,0,0,1-1.913-.5.6.6,0,0,1-.24-.844A4.237,4.237,0,0,0,.7,11,13.093,13.093,0,0,1,0,7.658,7.71,7.71,0,0,1,7.838,0a7.75,7.75,0,0,1,7.523,7.675A7.745,7.745,0,0,1,4.73,14.766a3.945,3.945,0,0,1-2.424.833Zm-.812-1.315a2.755,2.755,0,0,0,2.719-.641.594.594,0,0,1,.669-.109,6.536,6.536,0,0,0,9.29-5.857A6.492,6.492,0,0,0,1.188,7.661a13.785,13.785,0,0,0,.7,3.178,5.3,5.3,0,0,1-.389,3.445Z" fill="#4a5764"/>
      <path id="Path_21238" data-name="Path 21238" d="M17.693,20a3.945,3.945,0,0,1-2.423-.833,7.767,7.767,0,0,1-7.978-1.275.594.594,0,1,1,.777-.9,6.569,6.569,0,0,0,7.049.941.594.594,0,0,1,.669.109,2.754,2.754,0,0,0,2.719.641,5.279,5.279,0,0,1-.22-4.041c0-.012.009-.024.014-.036a6.559,6.559,0,0,0-.987-6.714.594.594,0,0,1,.912-.762A7.717,7.717,0,0,1,20,12.059a7.626,7.626,0,0,1-.6,2.995,4.191,4.191,0,0,0,.446,3.6.6.6,0,0,1-.241.844,3.892,3.892,0,0,1-1.913.5Z" fill="#4a5764"/>
      <ellipse id="Ellipse_292" data-name="Ellipse 292" cx="0.94" cy="0.939" rx="0.94" ry="0.939" transform="translate(6.741 6.767)" fill="#4a5764"/>
      <ellipse id="Ellipse_293" data-name="Ellipse 293" cx="0.94" cy="0.939" rx="0.94" ry="0.939" transform="translate(3.278 6.767)" fill="#4a5764"/>
      <ellipse id="Ellipse_294" data-name="Ellipse 294" cx="0.94" cy="0.939" rx="0.94" ry="0.939" transform="translate(10.204 6.767)" fill="#4a5764"/>
    </g>
  </g>
</svg>
