<svg xmlns="http://www.w3.org/2000/svg" xmlns:xlink="http://www.w3.org/1999/xlink" width="20" height="20" viewBox="0 0 20 20">
  <defs>
    <clipPath id="clip-path">
      <rect id="Rectangle_3154" data-name="Rectangle 3154" width="20" height="20" transform="translate(1319 379)" fill="#4a5764"/>
    </clipPath>
  </defs>
  <g id="icon-15" transform="translate(-1319 -379)" clip-path="url(#clip-path)">
    <g id="notification_1_" data-name="notification (1)" transform="translate(1318.091 378.092)">
      <path id="Path_21239" data-name="Path 21239" d="M18.334,18.182H3.485a1.666,1.666,0,0,1-1-3l.749-.561a1.358,1.358,0,0,0,.527-.87l.94-5.7a6.283,6.283,0,0,1,12.418,0l.939,5.7a1.358,1.358,0,0,0,.527.87l.749.561a1.666,1.666,0,0,1-1,3ZM10.909,3.636A5.344,5.344,0,0,0,5.6,8.192L4.658,13.9a2.263,2.263,0,0,1-.879,1.449l-.749.562a.758.758,0,0,0,.455,1.364H18.333a.757.757,0,0,0,.455-1.364l-.749-.562A2.263,2.263,0,0,1,17.16,13.9l-.94-5.7a5.345,5.345,0,0,0-5.31-4.56Z" fill="#4a5764"/>
      <path id="Path_21240" data-name="Path 21240" d="M12.273,3.8a.455.455,0,0,1-.455-.455V2.727a.909.909,0,0,0-1.818,0v.618a.455.455,0,1,1-.909,0V2.727a1.818,1.818,0,0,1,3.636,0v.618a.455.455,0,0,1-.455.455ZM10.909,20.909a3.185,3.185,0,0,1-3.182-3.182.455.455,0,1,1,.909,0,2.273,2.273,0,0,0,4.545,0,.455.455,0,1,1,.909,0A3.185,3.185,0,0,1,10.909,20.909Z" fill="#4a5764"/>
    </g>
  </g>
</svg>
