<svg xmlns="http://www.w3.org/2000/svg" xmlns:xlink="http://www.w3.org/1999/xlink" width="20" height="20" viewBox="0 0 20 20">
  <defs>
    <clipPath id="clip-path">
      <rect id="Rectangle_3161" data-name="Rectangle 3161" width="20" height="20" transform="translate(1319 1760)" fill="#4a5764"/>
    </clipPath>
  </defs>
  <g id="icon-17" transform="translate(-1319 -1760)" clip-path="url(#clip-path)">
    <g id="svgexport-17_10_" data-name="svgexport-17 (10)" transform="translate(1320.657 1760)">
      <path id="Path_21252" data-name="Path 21252" d="M8.217,9.634a4.661,4.661,0,0,0,3.406-1.411,4.661,4.661,0,0,0,1.411-3.406,4.662,4.662,0,0,0-1.411-3.406A4.662,4.662,0,0,0,8.217,0,4.661,4.661,0,0,0,4.811,1.411,4.661,4.661,0,0,0,3.4,4.817,4.661,4.661,0,0,0,4.811,8.223,4.663,4.663,0,0,0,8.217,9.634ZM5.64,2.24A3.482,3.482,0,0,1,8.217,1.172,3.482,3.482,0,0,1,10.794,2.24a3.482,3.482,0,0,1,1.068,2.577,3.482,3.482,0,0,1-1.068,2.577A3.482,3.482,0,0,1,8.217,8.462,3.483,3.483,0,0,1,5.64,7.394,3.482,3.482,0,0,1,4.572,4.817,3.482,3.482,0,0,1,5.64,2.24ZM16.646,15.379a11.9,11.9,0,0,0-.162-1.264,9.949,9.949,0,0,0-.311-1.271,6.275,6.275,0,0,0-.522-1.185,4.467,4.467,0,0,0-.787-1.026,3.474,3.474,0,0,0-1.131-.711,3.911,3.911,0,0,0-1.444-.261,1.466,1.466,0,0,0-.783.332q-.407.265-.816.526a4.672,4.672,0,0,1-1.055.465,4.1,4.1,0,0,1-2.581,0A4.661,4.661,0,0,1,6,10.519c-.3-.194-.578-.371-.816-.526A1.465,1.465,0,0,0,4.4,9.661a3.9,3.9,0,0,0-1.444.262,3.47,3.47,0,0,0-1.132.711,4.468,4.468,0,0,0-.787,1.026,6.29,6.29,0,0,0-.522,1.185A9.974,9.974,0,0,0,.2,14.115,11.817,11.817,0,0,0,.04,15.379c-.027.382-.04.779-.04,1.181a3.321,3.321,0,0,0,.986,2.512A3.55,3.55,0,0,0,3.528,20h9.63a3.551,3.551,0,0,0,2.541-.927,3.32,3.32,0,0,0,.986-2.513c0-.4-.014-.8-.04-1.181Zm-1.754,2.845a2.391,2.391,0,0,1-1.734.6H3.528a2.391,2.391,0,0,1-1.734-.6,2.169,2.169,0,0,1-.622-1.664c0-.375.012-.745.037-1.1a10.638,10.638,0,0,1,.146-1.138,8.8,8.8,0,0,1,.273-1.12,5.119,5.119,0,0,1,.425-.964,3.31,3.31,0,0,1,.579-.759,2.3,2.3,0,0,1,.753-.468,2.7,2.7,0,0,1,.923-.178c.041.022.114.064.233.141.241.157.519.336.826.532a5.806,5.806,0,0,0,1.325.592,5.269,5.269,0,0,0,3.3,0,5.813,5.813,0,0,0,1.325-.592c.314-.2.584-.375.825-.532.118-.077.192-.119.233-.141a2.7,2.7,0,0,1,.923.178,2.308,2.308,0,0,1,.753.468,3.3,3.3,0,0,1,.579.759,5.1,5.1,0,0,1,.425.963,8.782,8.782,0,0,1,.273,1.12,10.749,10.749,0,0,1,.146,1.138h0c.025.354.037.724.038,1.1a2.168,2.168,0,0,1-.623,1.663Zm0,0" fill="#4a5764"/>
    </g>
  </g>
</svg>
