<svg width="80" height="80" viewBox="0 0 80 80" fill="none" xmlns="http://www.w3.org/2000/svg">
<path d="M67.12 7.88013C66.8454 7.58538 66.5142 7.34897 66.1462 7.185C65.7782 7.02103 65.3809 6.93287 64.9781 6.92576C64.5753 6.91865 64.1752 6.99275 63.8016 7.14364C63.4281 7.29452 63.0887 7.5191 62.8038 7.80397C62.519 8.08885 62.2944 8.42818 62.1435 8.80174C61.9926 9.17529 61.9185 9.5754 61.9256 9.97822C61.9327 10.381 62.0209 10.7783 62.1849 11.1463C62.3488 11.5143 62.5853 11.8455 62.88 12.1201L69.76 19.0001H55C49.9609 19.0001 45.1282 21.0019 41.565 24.5651C38.0018 28.1283 36 32.961 36 38.0001V42.0001C36 45.4479 34.6304 48.7545 32.1924 51.1925C29.7544 53.6305 26.4478 55.0001 23 55.0001H11C10.2044 55.0001 9.44129 55.3162 8.87868 55.8788C8.31607 56.4414 8 57.2045 8 58.0001C8 58.7958 8.31607 59.5588 8.87868 60.1214C9.44129 60.6841 10.2044 61.0001 11 61.0001H23C28.0391 61.0001 32.8718 58.9983 36.435 55.4352C39.9982 51.872 42 47.0392 42 42.0001V38.0001C42 34.5523 43.3696 31.2457 45.8076 28.8077C48.2456 26.3698 51.5522 25.0001 55 25.0001H69.76L62.88 31.8801C62.3501 32.4488 62.0616 33.201 62.0753 33.9782C62.089 34.7554 62.4039 35.497 62.9535 36.0466C63.5032 36.5963 64.2447 36.9111 65.0219 36.9248C65.7991 36.9385 66.5513 36.65 67.12 36.1201L79.12 24.1201C79.6818 23.5576 79.9974 22.7951 79.9974 22.0001C79.9974 21.2051 79.6818 20.4426 79.12 19.8801L67.12 7.88013ZM53 14.0001C46.9 14.0001 41.0499 16.4233 36.7365 20.7367C32.4232 25.05 30 30.9001 30 37.0001V41.0001C30 43.3871 29.0518 45.6763 27.364 47.3641C25.6761 49.0519 23.3869 50.0001 21 50.0001H11C10.2044 50.0001 9.44129 49.6841 8.87868 49.1214C8.31607 48.5588 8 47.7958 8 47.0001C8 46.2045 8.31607 45.4414 8.87868 44.8788C9.44129 44.3162 10.2044 44.0001 11 44.0001H21C21.7956 44.0001 22.5587 43.6841 23.1213 43.1214C23.6839 42.5588 24 41.7958 24 41.0001V37.0001C24 29.3088 27.0553 21.9326 32.4939 16.494C37.9325 11.0555 45.3087 8.00013 53 8.00013H55C55.7957 8.00013 56.5587 8.3162 57.1213 8.87881C57.6839 9.44141 58 10.2045 58 11.0001C58 11.7958 57.6839 12.5588 57.1213 13.1214C56.5587 13.6841 55.7957 14.0001 55 14.0001H53ZM56.656 30.0041C55.68 31.9441 55.456 34.1241 55.976 36.1801C55.3969 36.3904 54.8966 36.7739 54.5431 37.2784C54.1896 37.7829 54 38.3841 54 39.0001V43.0001C54 50.6914 50.9446 58.0677 45.5061 63.5062C40.0675 68.9448 32.6913 72.0001 25 72.0001H23C22.2044 72.0001 21.4413 71.6841 20.8787 71.1215C20.3161 70.5588 20 69.7958 20 69.0001C20 68.2045 20.3161 67.4414 20.8787 66.8788C21.4413 66.3162 22.2044 66.0001 23 66.0001H25C31.1 66.0001 36.9501 63.5769 41.2635 59.2636C45.5768 54.9502 48 49.1001 48 43.0001V39.0001C47.9983 36.6716 48.8991 34.433 50.5133 32.7548C52.1274 31.0765 54.3292 30.0931 56.656 30.0041Z" fill="#6F2B90"/>
</svg>
