<svg width="80" height="80" viewBox="0 0 80 80" fill="none" xmlns="http://www.w3.org/2000/svg">
<path d="M40 75C20.7 75 5 59.3 5 40C5 20.7 20.7 5 40 5C59.3 5 75 20.7 75 40C75 59.3 59.3 75 40 75ZM40 10C23.45 10 10 23.45 10 40C10 56.55 23.45 70 40 70C56.55 70 70 56.55 70 40C70 23.45 56.55 10 40 10Z" fill="#6F2B90"/>
<path d="M50 52.5C49.55 52.5 49.1 52.4 48.7 52.15L36.2 44.65C35.8315 44.4256 35.5273 44.1097 35.317 43.733C35.1067 43.3562 34.9975 42.9315 35 42.5V22.5C35 21.1 36.1 20 37.5 20C38.9 20 40 21.1 40 22.5V41.1L51.3 47.85C51.7655 48.1353 52.1252 48.5645 52.3247 49.0726C52.5243 49.5808 52.5527 50.1401 52.4057 50.6658C52.2587 51.1916 51.9444 51.6551 51.5102 51.986C51.0761 52.317 50.5459 52.4975 50 52.5Z" fill="#6F2B90"/>
</svg>
