<svg width="21" height="21" viewBox="0 0 21 21" fill="none" xmlns="http://www.w3.org/2000/svg">
<path d="M10.4978 7.16667H10.5089M9.38669 10.5H10.4978V14.9444H11.6089M0.497803 10.5C0.497803 11.8132 0.75646 13.1136 1.25901 14.3268C1.76155 15.5401 2.49815 16.6425 3.42673 17.5711C4.35532 18.4997 5.45771 19.2363 6.67097 19.7388C7.88422 20.2413 9.18458 20.5 10.4978 20.5C11.811 20.5 13.1114 20.2413 14.3246 19.7388C15.5379 19.2363 16.6403 18.4997 17.5689 17.5711C18.4975 16.6425 19.2341 15.5401 19.7366 14.3268C20.2391 13.1136 20.4978 11.8132 20.4978 10.5C20.4978 7.84784 19.4442 5.3043 17.5689 3.42893C15.6935 1.55357 13.15 0.5 10.4978 0.5C7.84564 0.5 5.3021 1.55357 3.42673 3.42893C1.55137 5.3043 0.497803 7.84784 0.497803 10.5Z" stroke="#051242" stroke-linecap="round" stroke-linejoin="round"/>
</svg>
