<svg width="90" height="90" viewBox="0 0 90 90" fill="none" xmlns="http://www.w3.org/2000/svg">
<path d="M65.625 37.5C65.625 44.25 62.3813 50.25 57.36 54.0113L59.61 57.0113C62.6437 54.7433 65.1062 51.7985 66.8015 48.4112C68.4967 45.024 69.3779 41.2878 69.375 37.5H65.625ZM45 16.875C50.4701 16.875 55.7161 19.048 59.5841 22.9159C63.452 26.7839 65.625 32.0299 65.625 37.5H69.375C69.375 31.0353 66.8069 24.8355 62.2357 20.2643C57.6645 15.6931 51.4647 13.125 45 13.125V16.875ZM24.375 37.5C24.375 32.0299 26.548 26.7839 30.4159 22.9159C34.2839 19.048 39.5299 16.875 45 16.875V13.125C38.5354 13.125 32.3355 15.6931 27.7643 20.2643C23.1931 24.8355 20.625 31.0353 20.625 37.5H24.375ZM32.64 54.0113C30.072 52.0926 27.9876 49.6007 26.5527 46.7342C25.1178 43.8676 24.3721 40.7056 24.375 37.5H20.625C20.6221 41.2878 21.5033 45.024 23.1986 48.4112C24.8938 51.7985 27.3563 54.7433 30.39 57.0113L32.64 54.0113ZM39.3638 74.0738C39.2492 68.5902 38.1162 63.1757 36.0225 58.1063L32.5575 59.535C34.47 64.1625 35.5125 69.1238 35.6175 74.1525L39.3638 74.0738ZM50.8688 73.7175C49.0465 74.6284 47.0372 75.1027 45 75.1027C42.9628 75.1027 40.9535 74.6284 39.1313 73.7175L37.455 77.0738C39.7977 78.2448 42.3809 78.8544 45 78.8544C47.6191 78.8544 50.2023 78.2448 52.545 77.0738L50.8688 73.7175ZM53.9813 58.1063C51.8858 63.1766 50.7515 68.5924 50.6363 74.0775L54.3863 74.1525C54.4875 69.1238 55.53 64.1663 57.4425 59.5388L53.9813 58.1063ZM52.545 77.0738C53.0884 76.8005 53.5468 76.3839 53.8706 75.8691C54.1945 75.3542 54.3715 74.7606 54.3825 74.1525L50.6325 74.0775C50.6349 74.0016 50.6582 73.9278 50.6999 73.8642C50.7416 73.8007 50.8 73.7499 50.8688 73.7175L52.545 77.0738ZM35.6175 74.1525C35.6285 74.7606 35.8055 75.3542 36.1294 75.8691C36.4532 76.3839 36.9116 76.8005 37.455 77.0738L39.1313 73.7175C39.1987 73.7502 39.256 73.8006 39.297 73.8633C39.3379 73.9261 39.361 73.9989 39.3638 74.0738L35.6175 74.1525ZM30.39 57.015C31.5825 57.9075 31.8525 58.1288 31.965 58.275L34.9275 55.9763C34.4213 55.3238 33.6038 54.7388 32.64 54.0113L30.39 57.015ZM36.0225 58.1063C35.6963 57.3188 35.4225 56.6175 34.9275 55.9763L31.965 58.275C32.085 58.4325 32.1675 58.5938 32.5575 59.535L36.0225 58.1063ZM57.36 54.015C56.3963 54.735 55.5788 55.3275 55.0725 55.9763L58.035 58.275C58.1475 58.1288 58.4138 57.9075 59.61 57.0113L57.36 54.015ZM57.4425 59.5388C57.8325 58.5975 57.915 58.4325 58.0388 58.275L55.0763 55.9763C54.5775 56.6175 54.3038 57.3188 53.9775 58.1063L57.4425 59.5388Z" fill="#6F2B90"/>
<path d="M54.375 61.875C48.3569 64.2828 41.6431 64.2828 35.625 61.875" stroke="#6F2B90"/>
<path d="M41.25 52.5V36.5625C41.25 33.975 39.15 31.875 36.5625 31.875C33.975 31.875 31.875 33.975 31.875 36.5625C31.875 39.15 33.975 41.25 36.5625 41.25H53.4375C56.025 41.25 58.125 39.15 58.125 36.5625C58.125 33.975 56.025 31.875 53.4375 31.875C50.85 31.875 48.75 33.975 48.75 36.5625V52.5" stroke="#6F2B90" stroke-linecap="round"/>
</svg>
