<svg width="58" height="183" viewBox="0 0 58 183" fill="none" xmlns="http://www.w3.org/2000/svg">
<path d="M57.8384 160.244L47.7777 81.8587L42.4679 82.4166L52.5286 160.802C53.6465 168.891 47.7777 176.423 39.6733 177.539C31.5688 178.655 24.0233 172.797 22.9054 164.707L5.57864 28.5791C4.18132 17.4211 10.8885 6.82099 20.3903 5.42623H20.9492C30.4509 4.31043 39.3938 12.679 41.0706 24.1159V24.9528H46.6599L46.3804 23.558C44.4241 9.05259 32.9662 -1.26859 20.3903 0.126167H19.8313C7.25544 1.79987 -1.6874 14.9106 0.268844 29.137L17.5956 165.265C18.993 176.423 29.3331 184.234 40.5116 182.839C51.4107 181.723 59.2357 171.402 57.8384 160.244Z" fill="#F9DEDC"/>
</svg>
