<svg width="28" height="28" viewBox="0 0 28 28" fill="none" xmlns="http://www.w3.org/2000/svg">
<g clip-path="url(#clip0_160_2721)">
<mask id="mask0_160_2721" style="mask-type:luminance" maskUnits="userSpaceOnUse" x="0" y="0" width="28" height="28">
<path d="M28 0H0V28H28V0Z" fill="white"/>
</mask>
<g mask="url(#mask0_160_2721)">
<path d="M24.7188 0H3.28125C1.46907 0 0 1.46907 0 3.28125V24.7188C0 26.5309 1.46907 28 3.28125 28H24.7188C26.5309 28 28 26.5309 28 24.7188V3.28125C28 1.46907 26.5309 0 24.7188 0Z" fill="#2C7EB3"/>
<path d="M12.7101 16.2371L7.63928 22.0312H6.07174L12.1099 15.1299L12.3794 14.8219L12.1308 14.4969L5.60899 5.96875H10.3212L14.295 11.2225L14.6656 11.7125L15.0701 11.2501L19.6903 5.96875H21.2561L15.658 12.367L15.39 12.6733L15.6355 12.9979L22.4684 22.0312H17.8957L13.4835 16.2626L13.1124 15.7774L12.7101 16.2371ZM18.0504 21.1025L18.2005 21.2987H18.4475H20.0514H21.0565L20.4502 20.4971L10.0972 6.80864L9.94713 6.61025H9.69839H7.97727H6.96532L7.58012 7.41402L18.0504 21.1025Z" fill="#FEFEFE" stroke="#FEFEFE"/>
</g>
</g>
<defs>
<clipPath id="clip0_160_2721">
<rect width="28" height="28" rx="14" fill="white"/>
</clipPath>
</defs>
</svg>
