<svg width="21" height="22" viewBox="0 0 21 22" fill="none" xmlns="http://www.w3.org/2000/svg">
<path d="M14.3867 12.1111C13.3553 12.1111 12.3661 12.5208 11.6368 13.2501C10.9075 13.9794 10.4978 14.9686 10.4978 16M10.4978 16V17.1111M10.4978 16C10.4978 14.9686 10.0881 13.9794 9.35877 13.2501C8.62947 12.5208 7.64031 12.1111 6.60891 12.1111M10.4978 16V4.88889M10.4978 17.1111C10.4978 18.1425 10.9075 19.1317 11.6368 19.861C12.3661 20.5903 13.3553 21 14.3867 21C15.4181 21 16.4072 20.5903 17.1366 19.861C17.8659 19.1317 18.2756 18.1425 18.2756 17.1111V15.1111M10.4978 17.1111C10.4978 18.1425 10.0881 19.1317 9.35877 19.861C8.62947 20.5903 7.64031 21 6.60891 21C5.57752 21 4.58836 20.5903 3.85905 19.861C3.12975 19.1317 2.72003 18.1425 2.72003 17.1111V15.1111M16.6089 15.4444C17.6403 15.4444 18.6295 15.0347 19.3588 14.3054C20.0881 13.5761 20.4978 12.587 20.4978 11.5556C20.4978 10.5242 20.0881 9.535 19.3588 8.8057C18.6295 8.07639 17.6403 7.66667 16.6089 7.66667H16.0534M18.2756 8V4.88889C18.2756 3.85749 17.8659 2.86834 17.1366 2.13903C16.4072 1.40972 15.4181 1 14.3867 1C13.3553 1 12.3661 1.40972 11.6368 2.13903C10.9075 2.86834 10.4978 3.85749 10.4978 4.88889M10.4978 4.88889C10.4978 3.85749 10.0881 2.86834 9.35877 2.13903C8.62947 1.40972 7.64031 1 6.60891 1C5.57752 1 4.58836 1.40972 3.85905 2.13903C3.12975 2.86834 2.72003 3.85749 2.72003 4.88889V8M4.38669 15.4444C3.35529 15.4444 2.36614 15.0347 1.63683 14.3054C0.907524 13.5761 0.497803 12.587 0.497803 11.5556C0.497803 10.5242 0.907524 9.535 1.63683 8.8057C2.36614 8.07639 3.35529 7.66667 4.38669 7.66667H4.94225" stroke="#FEFEFE" stroke-linecap="round" stroke-linejoin="round"/>
</svg>
