<svg width="22" height="21" viewBox="0 0 22 21" fill="none" xmlns="http://www.w3.org/2000/svg">
<path d="M12.1111 14.9446V19.9446L14.3333 18.2779L16.5556 19.9446V14.9446M8.77778 16.6112H3.22222C2.63285 16.6112 2.06762 16.3771 1.65087 15.9603C1.23413 15.5436 1 14.9784 1 14.389V3.27789C1 2.05566 2 1.05566 3.22222 1.05566H18.7778C19.3671 1.05566 19.9324 1.28979 20.3491 1.70654C20.7659 2.12329 21 2.68852 21 3.27789V14.389C20.9996 14.7787 20.8967 15.1614 20.7017 15.4988C20.5067 15.8362 20.2264 16.1164 19.8889 16.3112M4.33333 5.50011H17.6667M4.33333 8.83344H7.66667M4.33333 12.1668H6.55556M11 12.1668C11 13.0508 11.3512 13.8987 11.9763 14.5238C12.6014 15.1489 13.4493 15.5001 14.3333 15.5001C15.2174 15.5001 16.0652 15.1489 16.6904 14.5238C17.3155 13.8987 17.6667 13.0508 17.6667 12.1668C17.6667 11.2827 17.3155 10.4349 16.6904 9.80975C16.0652 9.18463 15.2174 8.83344 14.3333 8.83344C13.4493 8.83344 12.6014 9.18463 11.9763 9.80975C11.3512 10.4349 11 11.2827 11 12.1668Z" stroke="#051242" stroke-linecap="round" stroke-linejoin="round"/>
</svg>
