<svg width="21" height="22" viewBox="0 0 21 22" fill="none" xmlns="http://www.w3.org/2000/svg">
<path d="M9.76009 19.9474H2.60746C2.04911 19.9474 1.51363 19.7256 1.11881 19.3308C0.724001 18.9359 0.502197 18.4005 0.502197 17.8421V5.21053C0.502197 4.65218 0.724001 4.11669 1.11881 3.72188C1.51363 3.32707 2.04911 3.10526 2.60746 3.10526H15.239C15.7974 3.10526 16.3329 3.32707 16.7277 3.72188C17.1225 4.11669 17.3443 4.65218 17.3443 5.21053V9.42105H0.502197M13.1338 1V5.21053M4.71272 1V5.21053M16.2917 15.2063V16.7895L17.3443 17.8421M12.0811 16.7895C12.0811 17.9062 12.5248 18.9771 13.3144 19.7668C14.104 20.5564 15.175 21 16.2917 21C17.4084 21 18.4793 20.5564 19.269 19.7668C20.0586 18.9771 20.5022 17.9062 20.5022 16.7895C20.5022 15.6728 20.0586 14.6018 19.269 13.8122C18.4793 13.0226 17.4084 12.5789 16.2917 12.5789C15.175 12.5789 14.104 13.0226 13.3144 13.8122C12.5248 14.6018 12.0811 15.6728 12.0811 16.7895Z" stroke="#FEFEFE" stroke-linecap="round" stroke-linejoin="round"/>
</svg>
