<svg width="21" height="22" viewBox="0 0 21 22" fill="none" xmlns="http://www.w3.org/2000/svg">
<path d="M6.05336 21V19.8889C6.05336 19.2995 6.28749 18.7343 6.70423 18.3175C7.12098 17.9008 7.68621 17.6667 8.27558 17.6667H12.72C13.3094 17.6667 13.8746 17.9008 14.2914 18.3175C14.7081 18.7343 14.9422 19.2995 14.9422 19.8889V21M16.0534 8.77778H18.2756C18.865 8.77778 19.4302 9.0119 19.8469 9.42865C20.2637 9.8454 20.4978 10.4106 20.4978 11V12.1111M0.497803 12.1111V11C0.497803 10.4106 0.731929 9.8454 1.14868 9.42865C1.56542 9.0119 2.13066 8.77778 2.72003 8.77778H4.94225M8.27558 12.1111C8.27558 12.7005 8.50971 13.2657 8.92646 13.6825C9.3432 14.0992 9.90843 14.3333 10.4978 14.3333C11.0872 14.3333 11.6524 14.0992 12.0692 13.6825C12.4859 13.2657 12.72 12.7005 12.72 12.1111C12.72 11.5217 12.4859 10.9565 12.0692 10.5398C11.6524 10.123 11.0872 9.88889 10.4978 9.88889C9.90843 9.88889 9.3432 10.123 8.92646 10.5398C8.50971 10.9565 8.27558 11.5217 8.27558 12.1111ZM13.8311 3.22222C13.8311 3.81159 14.0653 4.37682 14.482 4.79357C14.8988 5.21032 15.464 5.44444 16.0534 5.44444C16.6427 5.44444 17.208 5.21032 17.6247 4.79357C18.0415 4.37682 18.2756 3.81159 18.2756 3.22222C18.2756 2.63285 18.0415 2.06762 17.6247 1.65087C17.208 1.23413 16.6427 1 16.0534 1C15.464 1 14.8988 1.23413 14.482 1.65087C14.0653 2.06762 13.8311 2.63285 13.8311 3.22222ZM2.72003 3.22222C2.72003 3.81159 2.95415 4.37682 3.3709 4.79357C3.78765 5.21032 4.35288 5.44444 4.94225 5.44444C5.53162 5.44444 6.09685 5.21032 6.5136 4.79357C6.93034 4.37682 7.16447 3.81159 7.16447 3.22222C7.16447 2.63285 6.93034 2.06762 6.5136 1.65087C6.09685 1.23413 5.53162 1 4.94225 1C4.35288 1 3.78765 1.23413 3.3709 1.65087C2.95415 2.06762 2.72003 2.63285 2.72003 3.22222Z" stroke="#FEFEFE" stroke-linecap="round" stroke-linejoin="round"/>
</svg>
