<svg width="22" height="22" viewBox="0 0 22 22" fill="none" xmlns="http://www.w3.org/2000/svg">
<path d="M2.06474 7.66667H20.7314M2.06474 14.3333H20.7314M10.8425 1C8.97067 3.99957 7.9783 7.46429 7.9783 11C7.9783 14.5357 8.97067 18.0004 10.8425 21M11.9536 1C13.8255 3.99957 14.8178 7.46429 14.8178 11C14.8178 14.5357 13.8255 18.0004 11.9536 21M1.39807 11C1.39807 12.3132 1.65673 13.6136 2.15928 14.8268C2.66182 16.0401 3.39842 17.1425 4.327 18.0711C5.25559 18.9997 6.35798 19.7363 7.57124 20.2388C8.78449 20.7413 10.0849 21 11.3981 21C12.7113 21 14.0117 20.7413 15.2249 20.2388C16.4382 19.7363 17.5406 18.9997 18.4691 18.0711C19.3977 17.1425 20.1343 16.0401 20.6369 14.8268C21.1394 13.6136 21.3981 12.3132 21.3981 11C21.3981 8.34784 20.3445 5.8043 18.4691 3.92893C16.5938 2.05357 14.0502 1 11.3981 1C8.74591 1 6.20237 2.05357 4.327 3.92893C2.45164 5.8043 1.39807 8.34784 1.39807 11Z" stroke="#FEFEFE" stroke-linecap="round" stroke-linejoin="round"/>
</svg>
