<svg width="17" height="22" viewBox="0 0 17 22" fill="none" xmlns="http://www.w3.org/2000/svg">
<path d="M10.7222 1V5.44444C10.7222 5.73913 10.8392 6.02174 11.0476 6.23012C11.256 6.43849 11.5386 6.55556 11.8333 6.55556H16.2777M10.7222 1H2.94439C2.35502 1 1.78979 1.23413 1.37304 1.65087C0.956294 2.06762 0.722168 2.63285 0.722168 3.22222V18.7778C0.722168 19.3671 0.956294 19.9324 1.37304 20.3491C1.78979 20.7659 2.35502 21 2.94439 21H14.0555C14.6449 21 15.2101 20.7659 15.6268 20.3491C16.0436 19.9324 16.2777 19.3671 16.2777 18.7778V6.55556M10.7222 1L16.2777 6.55556M5.16661 5.44444H6.27772M5.16661 12.1111H11.8333M9.61106 16.5556H11.8333" stroke="#FEFEFE" stroke-linecap="round" stroke-linejoin="round"/>
</svg>
