<svg width="26" height="26" viewBox="0 0 26 26" fill="none" xmlns="http://www.w3.org/2000/svg">
<path d="M9 19.6667V21C9 22.0609 9.42143 23.0783 10.1716 23.8284C10.9217 24.5786 11.9391 25 13 25C14.0609 25 15.0783 24.5786 15.8284 23.8284C16.5786 23.0783 17 22.0609 17 21V19.6667M25 5.96933C24.1254 4.067 22.8554 2.37293 21.2747 1M1 5.96933C1.8738 4.06725 3.14287 2.3732 4.72267 1M10.3333 3.66667C10.3333 2.95942 10.6143 2.28115 11.1144 1.78105C11.6145 1.28095 12.2928 1 13 1C13.7072 1 14.3855 1.28095 14.8856 1.78105C15.3857 2.28115 15.6667 2.95942 15.6667 3.66667C17.1979 4.3907 18.5032 5.51777 19.4427 6.92707C20.3823 8.33636 20.9206 9.97476 21 11.6667V15.6667C21.1003 16.4956 21.3939 17.2894 21.8571 17.9842C22.3203 18.6789 22.9401 19.2552 23.6667 19.6667H2.33333C3.05992 19.2552 3.67975 18.6789 4.14292 17.9842C4.60609 17.2894 4.89966 16.4956 5 15.6667V11.6667C5.07941 9.97476 5.61773 8.33636 6.55727 6.92707C7.4968 5.51777 8.80212 4.3907 10.3333 3.66667Z" stroke="#051242" stroke-linecap="round" stroke-linejoin="round"/>
</svg>
