<svg width="28" height="28" viewBox="0 0 28 28" fill="none" xmlns="http://www.w3.org/2000/svg">
<g clip-path="url(#clip0_160_2674)">
<path d="M14.0002 0.583509C11.567 0.583753 9.17968 1.24568 7.09378 2.49843C5.00788 3.75118 3.30193 5.54759 2.15852 7.69537C1.01511 9.84315 0.477303 12.2614 0.602659 14.6914C0.728014 17.1213 1.51182 19.4715 2.87016 21.4902L0.583496 27.4168L6.68516 25.2352C8.43508 26.3774 10.4276 27.0951 12.504 27.331C14.5804 27.567 16.6831 27.3146 18.6447 26.5941C20.6063 25.8736 22.3725 24.7048 23.8024 23.1809C25.2324 21.6571 26.2866 19.8202 26.8811 17.8169C27.4756 15.8135 27.5938 13.6989 27.2265 11.6417C26.8592 9.58455 26.0164 7.64161 24.7653 5.96777C23.5142 4.29394 21.8894 2.93549 20.0204 2.00069C18.1514 1.0659 16.0899 0.580615 14.0002 0.583509Z" fill="#2C7EB3" stroke="#FEFEFE" stroke-linecap="round" stroke-linejoin="round"/>
<path d="M11.0837 16.9168C12.6003 18.4335 15.9487 20.4168 17.5003 20.4168C18.181 20.4239 18.8431 20.1954 19.3747 19.7702C19.9062 19.345 20.2744 18.7491 20.417 18.0835V16.9168C20.417 16.9168 18.982 16.2168 18.0837 15.7502C17.1853 15.2835 15.7503 16.9168 15.7503 16.9168C14.6585 16.5611 13.6613 15.9628 12.8337 15.1668C12.0376 14.3392 11.4394 13.342 11.0837 12.2502C11.0837 12.2502 12.717 10.8152 12.2503 9.91683C11.7837 9.0185 11.0837 7.5835 11.0837 7.5835H9.91699C9.25139 7.72606 8.65552 8.09428 8.2303 8.62581C7.80507 9.15734 7.57663 9.81951 7.58365 10.5002C7.58365 12.0518 9.56699 15.4002 11.0837 16.9168Z" fill="#FEFEFE"/>
</g>
<defs>
<clipPath id="clip0_160_2674">
<rect width="28" height="28" fill="white"/>
</clipPath>
</defs>
</svg>
