<svg id="Group_14429" data-name="Group 14429" xmlns="http://www.w3.org/2000/svg" width="31.918" height="30.342" viewBox="0 0 31.918 30.342">
    <path id="Path_20830" data-name="Path 20830" d="M28.417,12.543,16.255,18.313,4.093,12.626l-.693,7.9a1.211,1.211,0,0,0,.247.878.748.748,0,0,0,.711.288,11.372,11.372,0,0,1,2.024-.182c4.042,0,7.658,2.13,9,5.3a.839.839,0,0,0,.745.56h.258a.839.839,0,0,0,.745-.56c1.341-3.171,4.957-5.3,9-5.3a11.358,11.358,0,0,1,2.024.182,1.232,1.232,0,0,0,.128.011.92.92,0,0,0,.842-1.048C29.118,20.562,28.417,12.543,28.417,12.543Z" transform="translate(0.123 0.51)" fill="#fff"></path>
    <path id="Path_20831" data-name="Path 20831" d="M31.356,10.671,16.642,3.629a.661.661,0,0,0-.581,0L1.309,10.689a1.072,1.072,0,0,0-.534.981V24.419H2.625V13.245l13.437,6.431a.661.661,0,0,0,.581,0l14.714-7.043a1.168,1.168,0,0,0,0-1.962Z" transform="translate(0.028 -3.561)" fill="#fff"></path>
    <path id="Path_20832" data-name="Path 20832" d="M0,25.67a1.342,1.342,0,0,0,.188.811.676.676,0,0,0,.555.346H2.535a.677.677,0,0,0,.555-.347,1.339,1.339,0,0,0,.188-.811l-.488-6.5H.492Z" transform="translate(0 3.515)" fill="#fff"></path>
</svg>
