<svg xmlns="http://www.w3.org/2000/svg" width="29.519" height="27.962" viewBox="0 0 29.519 27.962">
    <path id="Path_21290" data-name="Path 21290" d="M38.065,43.5l5.974,5.758a1.7,1.7,0,0,1,.5,1.515l-1.413,8.2a.851.851,0,0,0,1.243.9L51.788,56a1.728,1.728,0,0,1,1.566,0l7.423,3.882a.851.851,0,0,0,1.243-.9l-1.43-8.189A1.728,1.728,0,0,1,61.1,49.27L67.077,43.5a.851.851,0,0,0-.466-1.445l-8.285-1.192a1.682,1.682,0,0,1-1.277-.919L53.337,32.5a.851.851,0,0,0-1.532,0l-3.712,7.44a1.682,1.682,0,0,1-1.277.919L38.532,42.05a.851.851,0,0,0-.466,1.449Z" transform="translate(-37.81 -32.018)" fill="#fff"></path>
</svg>
