<svg xmlns="http://www.w3.org/2000/svg" width="16.4" height="16.4" viewBox="0 0 16.4 16.4">
  <path id="calender" d="M15.6,3.6H14V2.8a.8.8,0,1,0-1.6,0v.8H7.6V2.8A.8.8,0,0,0,6,2.8v.8H4.4A2.4,2.4,0,0,0,2,6v9.6A2.4,2.4,0,0,0,4.4,18H15.6A2.4,2.4,0,0,0,18,15.6V6a2.4,2.4,0,0,0-2.4-2.4Zm.8,12a.8.8,0,0,1-.8.8H4.4a.8.8,0,0,1-.8-.8V10H16.4Zm0-7.2H3.6V6a.8.8,0,0,1,.8-.8H6V6A.8.8,0,0,0,7.6,6V5.2h4.8V6A.8.8,0,1,0,14,6V5.2h1.6a.8.8,0,0,1,.8.8Z" transform="translate(-1.8 -1.8)" fill="#fff" stroke="#fff" stroke-width="0.4"/>
</svg>
