<svg xmlns="http://www.w3.org/2000/svg" xmlns:xlink="http://www.w3.org/1999/xlink" width="27.642" height="27.642" viewBox="0 0 27.642 27.642">
  <defs>
    <clipPath id="clip-path">
      <ellipse id="Ellipse_172" data-name="Ellipse 172" cx="7.5" cy="8" rx="7.5" ry="8" transform="translate(0.352 -0.474)" fill="#fff"/>
    </clipPath>
  </defs>
  <g id="dollar" transform="translate(1 1)">
    <circle id="Ellipse_19" data-name="Ellipse 19" cx="12.821" cy="12.821" r="12.821" fill="#718ba1" stroke="#fff" stroke-width="2"/>
    <g id="Mask_Group_7" data-name="Mask Group 7" transform="translate(5.295 5.076)" clip-path="url(#clip-path)">
      <path id="dollar-svgrepo-com" d="M12.246,15.877v2.308h1.539V15.877h.769a3.077,3.077,0,0,0,0-6.154h-.769V6.646h1.539V8.185h1.539V5.108H13.785V2.8H12.246V5.108h-.769a3.077,3.077,0,0,0,0,6.154h.769v3.077H10.708V12.8H9.169v3.077Zm1.539-1.539h.769a1.539,1.539,0,0,0,0-3.077h-.769ZM12.246,9.723V6.646h-.769a1.539,1.539,0,0,0,0,3.077Z" transform="translate(-5.17 -2.427)" fill="#fff" fill-rule="evenodd"/>
    </g>
  </g>
</svg>
