<svg id="paypal2" xmlns="http://www.w3.org/2000/svg" width="63.093" height="16.82" viewBox="0 0 63.093 16.82">
  <path id="Path_20805" data-name="Path 20805" d="M65.632,162a5.359,5.359,0,0,0-3.1-.816H57.608a.583.583,0,0,0-.647.585l-2,12.568a.412.412,0,0,0,.092.339.378.378,0,0,0,.308.154H57.7a.6.6,0,0,0,.678-.585l.554-3.388a.6.6,0,0,1,.216-.4.949.949,0,0,1,.462-.2,3.222,3.222,0,0,1,.524-.046q.246,0,.585.031t.431.031a5.652,5.652,0,0,0,4.159-1.494,5.568,5.568,0,0,0,1.509-4.143A2.97,2.97,0,0,0,65.632,162Zm-2.541,3.774a1.748,1.748,0,0,1-.8,1.417,4.058,4.058,0,0,1-1.848.339l-1.017.031.524-3.3a.369.369,0,0,1,.4-.339h.585a3.437,3.437,0,0,1,1.787.354Q63.275,164.632,63.091,165.772Z" transform="translate(-54.952 -161.182)" fill="#003087"/>
  <path id="Path_20806" data-name="Path 20806" d="M675.447,161.18h-2.279a.368.368,0,0,0-.4.339l-2,12.814-.031.062a.434.434,0,0,0,.124.293.4.4,0,0,0,.308.139H673.2a.583.583,0,0,0,.647-.585l2-12.6v-.031q0-.431-.4-.431Z" transform="translate(-612.755 -161.18)" fill="#009cde"/>
  <path id="Path_20807" data-name="Path 20807" d="M319.252,209.711a.437.437,0,0,0-.123-.292.366.366,0,0,0-.277-.139h-2.372a.652.652,0,0,0-.555.308l-3.265,4.806-1.355-4.621a.648.648,0,0,0-.678-.493h-2.311a.363.363,0,0,0-.277.139.434.434,0,0,0-.123.292q0,.062.6,1.817t1.294,3.789q.693,2.033.724,2.156a28.658,28.658,0,0,0-2.526,3.7.354.354,0,0,0,.4.4h2.372a.652.652,0,0,0,.555-.308l7.855-11.336a.3.3,0,0,0,.061-.216Z" transform="translate(-284.098 -204.751)" fill="#003087"/>
  <path id="Path_20808" data-name="Path 20808" d="M555.905,207.2h-2.341q-.432,0-.523,1.017a3.227,3.227,0,0,0-2.927-1.232,4.975,4.975,0,0,0-3.773,1.664,5.54,5.54,0,0,0-1.556,3.912,3.944,3.944,0,0,0,1.063,2.9,3.818,3.818,0,0,0,2.85,1.078,4.874,4.874,0,0,0,1.817-.37,3.621,3.621,0,0,0,1.448-.986,2.653,2.653,0,0,1-.062.277,1.674,1.674,0,0,0-.062.37q0,.493.4.493h2.126a.619.619,0,0,0,.677-.585l1.263-8.04a.415.415,0,0,0-.092-.339A.381.381,0,0,0,555.905,207.2Zm-4.02,6.068a2.608,2.608,0,0,1-1.894.77,2.1,2.1,0,0,1-1.448-.493,1.718,1.718,0,0,1-.555-1.355,2.645,2.645,0,0,1,.77-1.925,2.566,2.566,0,0,1,1.91-.786,2.074,2.074,0,0,1,1.432.508,1.783,1.783,0,0,1,.57,1.4A2.531,2.531,0,0,1,551.885,213.273Z" transform="translate(-498.665 -202.676)" fill="#009cde"/>
  <path id="Path_20809" data-name="Path 20809" d="M184.243,207.2H181.9q-.432,0-.524,1.017a3.274,3.274,0,0,0-2.926-1.232,4.976,4.976,0,0,0-3.774,1.664,5.541,5.541,0,0,0-1.556,3.912,3.944,3.944,0,0,0,1.063,2.9,3.818,3.818,0,0,0,2.849,1.078,4.8,4.8,0,0,0,1.787-.37,3.891,3.891,0,0,0,1.479-.986,2.08,2.08,0,0,0-.123.647q0,.493.4.493H182.7a.62.62,0,0,0,.678-.585l1.263-8.04a.415.415,0,0,0-.092-.339A.38.38,0,0,0,184.243,207.2Zm-4.02,6.084a2.672,2.672,0,0,1-1.925.755,2.038,2.038,0,0,1-1.432-.493,1.742,1.742,0,0,1-.539-1.355,2.645,2.645,0,0,1,.77-1.925,2.566,2.566,0,0,1,1.91-.786,2.074,2.074,0,0,1,1.432.508,1.783,1.783,0,0,1,.57,1.4A2.516,2.516,0,0,1,180.223,213.288Z" transform="translate(-161.997 -202.676)" fill="#003087"/>
  <path id="Path_20810" data-name="Path 20810" d="M437.291,162a5.358,5.358,0,0,0-3.1-.816h-4.9a.6.6,0,0,0-.678.585l-2,12.568a.411.411,0,0,0,.092.339.378.378,0,0,0,.308.154h2.526a.49.49,0,0,0,.493-.4l.555-3.573a.6.6,0,0,1,.216-.4.95.95,0,0,1,.462-.2,3.22,3.22,0,0,1,.524-.046q.246,0,.585.031c.226.021.37.031.431.031a5.652,5.652,0,0,0,4.159-1.494,5.566,5.566,0,0,0,1.509-4.143A2.969,2.969,0,0,0,437.291,162Zm-3.157,5.067a3.632,3.632,0,0,1-2.033.462l-.986.031.524-3.3a.369.369,0,0,1,.4-.339h.554a7.459,7.459,0,0,1,1.078.061,1.526,1.526,0,0,1,.77.385,1.182,1.182,0,0,1,.37.94A1.985,1.985,0,0,1,434.134,167.066Z" transform="translate(-391.618 -161.182)" fill="#009cde"/>
</svg>
