<svg xmlns="http://www.w3.org/2000/svg" width="15.552" height="16.153" viewBox="0 0 15.552 16.153">
  <g id="user" transform="translate(-424.277 -563.746)">
    <path id="Path_20800" data-name="Path 20800" d="M12.231,12a3.5,3.5,0,1,0-3.5-3.5A3.506,3.506,0,0,0,12.231,12Zm0-5.567A2.065,2.065,0,1,1,10.167,8.5,2.069,2.069,0,0,1,12.231,6.433Z" transform="translate(419.796 559)" fill="#fff" stroke="#fff" stroke-width="0.5"/>
    <path id="Path_20801" data-name="Path 20801" d="M19.221,13.573a7.494,7.494,0,0,0-5.652-2.063,7.494,7.494,0,0,0-5.652,2.063,7.438,7.438,0,0,0-1.869,4.151c-.046.335.262.634.7.674a.767.767,0,0,0,.872-.537c.5-3.406,2.5-5.134,5.953-5.134s5.455,1.728,5.953,5.134a.747.747,0,0,0,.78.542.6.6,0,0,0,.092-.005c.433-.035.741-.34.7-.674A7.438,7.438,0,0,0,19.221,13.573Z" transform="translate(418.483 561.243)" fill="#fff" stroke="#fff" stroke-width="0.5"/>
  </g>
</svg>
