<svg xmlns="http://www.w3.org/2000/svg" xmlns:xlink="http://www.w3.org/1999/xlink" width="70" height="18" viewBox="0 0 70 18">
  <defs>
    <clipPath id="clip-path">
      <rect id="Rectangle_3149" data-name="Rectangle 3149" width="38" height="11" transform="translate(0 -0.155)" fill="#003087"/>
    </clipPath>
    <clipPath id="clip-path-2">
      <rect id="Rectangle_3150" data-name="Rectangle 3150" width="27" height="18" transform="translate(0.301 -0.41)" fill="#fff"/>
    </clipPath>
  </defs>
  <g id="visa2" transform="translate(-214 -220)">
    <g id="Group_14329" data-name="Group 14329" transform="translate(214 224.155)" clip-path="url(#clip-path)">
      <path id="Path_21154" data-name="Path 21154" d="M7.915,10.914l-.1-.02c-.016-.055-.036-.109-.047-.165C7.353,8.613,6.948,6.5,6.524,4.381a1.306,1.306,0,0,0-1.465-1.17C3.485,3.2,1.911,3.2.337,3.211A1.137,1.137,0,0,0,0,3.34a1.474,1.474,0,0,0,.305.194c.788.26,1.584.5,2.367.767A1.536,1.536,0,0,1,3.688,5.476c.766,2.931,1.553,5.856,2.328,8.786a.359.359,0,0,0,.421.325c.836-.015,1.672-.012,2.508,0a.405.405,0,0,0,.444-.276Q11.7,8.933,14.022,3.555c.039-.091.061-.19.1-.324-.187-.009-.32-.021-.452-.022-.726,0-1.452.014-2.177-.007a.521.521,0,0,0-.592.384c-.919,2.3-1.86,4.589-2.795,6.884C8.046,10.62,7.98,10.766,7.915,10.914Zm10.321,3.24c.13.053.237.106.351.143a9.783,9.783,0,0,0,4.438.341,5.164,5.164,0,0,0,2.652-1.156,3.107,3.107,0,0,0-.33-5.091c-.533-.319-1.089-.6-1.627-.909A6.31,6.31,0,0,1,22.949,7,.775.775,0,0,1,23,5.646a1.165,1.165,0,0,1,.53-.231,11.728,11.728,0,0,1,1.823-.024,11.013,11.013,0,0,1,1.547.37q.25-1.136.494-2.249a8.055,8.055,0,0,0-4.3-.378,4.864,4.864,0,0,0-2.769,1.45,2.838,2.838,0,0,0,.384,4.374,15.5,15.5,0,0,0,1.405.847,12.9,12.9,0,0,1,1.135.659.936.936,0,0,1-.2,1.73,1.886,1.886,0,0,1-.415.143,5.8,5.8,0,0,1-3.412-.4l-.462-.189c-.183.823-.354,1.6-.53,2.4ZM18.541,3.23c-.174-.01-.3-.023-.413-.024-.714,0-1.427.015-2.14-.008a.409.409,0,0,0-.491.383q-1.059,4.855-2.133,9.706c-.093.422-.172.845-.263,1.291.946,0,1.819-.006,2.691,0,.262,0,.284-.156.325-.341q.761-3.456,1.529-6.911C17.943,5.985,18.235,4.636,18.541,3.23Z" transform="translate(0 -3.22)" fill="#003087"/>
      <path id="Path_21155" data-name="Path 21155" d="M33.607,14.548c-.879,0-1.711.008-2.543-.012-.074,0-.183-.171-.211-.278-.1-.369-.169-.744-.238-1.118-.041-.224-.148-.316-.4-.313q-1.678.017-3.357,0a.383.383,0,0,0-.423.3c-.134.4-.279.789-.444,1.175-.042.1-.167.237-.257.239-.954.017-1.908.011-2.919.011.115-.28.207-.51.3-.737,1.384-3.21,2.777-6.418,4.147-9.634a1.472,1.472,0,0,1,1.553-1c.651.022,1.3.019,1.954,0a.425.425,0,0,1,.512.4c.538,2.565,1.092,5.127,1.641,7.69q.311,1.45.62,2.9C33.578,14.273,33.582,14.388,33.607,14.548ZM27.4,10.578H29.79c.237,0,.241-.124.2-.31-.176-.789-.338-1.583-.508-2.375-.116-.539-.239-1.076-.359-1.613l-.115-.012C28.478,7.68,27.955,9.089,27.4,10.578Z" transform="translate(3.994 -3.19)" fill="#003087"/>
      <path id="Path_21156" data-name="Path 21156" d="M7.915,10.884c.064-.148.13-.294.191-.443C9.04,8.146,9.981,5.851,10.9,3.557a.525.525,0,0,1,.592-.384c.725.021,1.451.006,2.177.007.132,0,.265.012.452.022-.042.134-.064.233-.1.324Q11.7,8.9,9.384,14.281a.4.4,0,0,1-.444.276c-.836-.011-1.672-.014-2.508,0a.359.359,0,0,1-.421-.325C5.247,11.3,4.456,8.376,3.69,5.445A1.529,1.529,0,0,0,2.675,4.271C1.89,4,1.093,3.765.308,3.5A1.431,1.431,0,0,1,0,3.31a1.019,1.019,0,0,1,.337-.125c1.575-.008,3.149-.012,4.723,0A1.3,1.3,0,0,1,6.525,4.351c.424,2.114.829,4.231,1.243,6.348.011.056.032.11.047.165Z" transform="translate(0 -3.19)" fill="#003087"/>
      <path id="Path_21157" data-name="Path 21157" d="M15.521,14.154l.528-2.4.462.189a5.8,5.8,0,0,0,3.412.4,1.887,1.887,0,0,0,.415-.143.936.936,0,0,0,.2-1.73A12.937,12.937,0,0,0,19.4,9.8,16.134,16.134,0,0,1,18,8.957a2.838,2.838,0,0,1-.384-4.374,4.863,4.863,0,0,1,2.769-1.45,8.053,8.053,0,0,1,4.3.379q-.244,1.112-.494,2.249a11.038,11.038,0,0,0-1.547-.37,11.726,11.726,0,0,0-1.823.024,1.179,1.179,0,0,0-.53.231A.775.775,0,0,0,20.229,7,6.31,6.31,0,0,0,21,7.483c.54.308,1.1.589,1.627.909a3.105,3.105,0,0,1,.33,5.091,5.205,5.205,0,0,1-2.652,1.156,9.781,9.781,0,0,1-4.438-.341C15.758,14.258,15.651,14.207,15.521,14.154Z" transform="translate(2.716 -3.22)" fill="#003087"/>
      <path id="Path_21158" data-name="Path 21158" d="M16.589,3.2c-.306,1.405-.6,2.755-.9,4.1q-.763,3.455-1.529,6.911c-.041.185-.063.343-.325.341-.872-.01-1.745,0-2.691,0,.09-.447.169-.871.263-1.291l2.133-9.709a.408.408,0,0,1,.491-.383c.713.023,1.426.006,2.14.008C16.3,3.178,16.416,3.191,16.589,3.2Z" transform="translate(1.951 -3.191)" fill="#003087"/>
    </g>
    <g id="Group_14330" data-name="Group 14330" transform="translate(256.699 220.41)" clip-path="url(#clip-path-2)">
      <path id="Path_21159" data-name="Path 21159" d="M36,9.406V8.29c.03-.018.019-.049.021-.075A8.75,8.75,0,0,1,47.316.4a8.374,8.374,0,0,1,2.759,1.477,1.058,1.058,0,0,1-.09.094A7.912,7.912,0,0,0,48.931,3,9.158,9.158,0,0,0,47.6,5.071a8.732,8.732,0,0,0-.808,3.2,8.609,8.609,0,0,0,.045,1.609,9.115,9.115,0,0,0,.445,1.9,8.72,8.72,0,0,0,2.393,3.6,4.154,4.154,0,0,1,.4.361c-.052.042-.1.085-.156.125a8.562,8.562,0,0,1-4.146,1.691,2.667,2.667,0,0,0-.492.065H44.1c-.018-.04-.055-.022-.082-.024a8.742,8.742,0,0,1-1.75-.325,8.62,8.62,0,0,1-4.391-2.993,8.7,8.7,0,0,1-1.817-4.392A2.315,2.315,0,0,0,36,9.406Z" transform="translate(-36.399 0)" fill="#ed1f25"/>
      <path id="Path_21160" data-name="Path 21160" d="M53.917,17.625H52.836c-.022-.032-.056-.02-.086-.023a8.527,8.527,0,0,1-2.646-.626A8.88,8.88,0,0,1,48,15.741a6.263,6.263,0,0,0,.52-.442,10.093,10.093,0,0,0,.983-1.082A8.654,8.654,0,0,0,50.9,11.554a8.817,8.817,0,0,0,.415-3.082A9.205,9.205,0,0,0,51.159,7.1,8.866,8.866,0,0,0,48,1.886l.075-.056a8.606,8.606,0,0,1,9.4-.794,8.862,8.862,0,0,1,4.442,9.534,8.69,8.69,0,0,1-3.257,5.252,8.457,8.457,0,0,1-4.217,1.738A3.89,3.89,0,0,0,53.917,17.625Z" transform="translate(-34.298 0)" fill="#f8a81f"/>
      <path id="Path_21161" data-name="Path 21161" d="M48.5,15.46l-.031,0a4.1,4.1,0,0,0-.4-.361,8.723,8.723,0,0,1-2.393-3.6,9.116,9.116,0,0,1-.445-1.9,8.53,8.53,0,0,1-.045-1.609,8.732,8.732,0,0,1,.808-3.2,9.158,9.158,0,0,1,1.333-2.07,7.914,7.914,0,0,1,1.054-1.025,1.04,1.04,0,0,0,.09-.094l.03,0a8.866,8.866,0,0,1,3.155,5.21,9.236,9.236,0,0,1,.155,1.375,8.821,8.821,0,0,1-.415,3.083A8.656,8.656,0,0,1,50,13.935a10.228,10.228,0,0,1-.983,1.082A6.276,6.276,0,0,1,48.5,15.46Z" transform="translate(-34.795 0.28)" fill="#f36b22"/>
    </g>
  </g>
</svg>
